<?xml version="1.0" encoding="UTF-8" standalone="no"?>
<svg
   id="svg8"
   version="1.1"
   viewBox="0 0 34 34"
   height="34"
   width="34"
   sodipodi:docname="Hibernate.svg"
   xml:space="preserve"
   inkscape:version="1.4 (e7c3feb100, 2024-10-09)"
   xmlns:inkscape="http://www.inkscape.org/namespaces/inkscape"
   xmlns:sodipodi="http://sodipodi.sourceforge.net/DTD/sodipodi-0.dtd"
   xmlns="http://www.w3.org/2000/svg"
   xmlns:svg="http://www.w3.org/2000/svg"
   xmlns:rdf="http://www.w3.org/1999/02/22-rdf-syntax-ns#"
   xmlns:cc="http://creativecommons.org/ns#"
   xmlns:dc="http://purl.org/dc/elements/1.1/"><sodipodi:namedview
     id="namedview1"
     pagecolor="#ffffff"
     bordercolor="#999999"
     borderopacity="1"
     inkscape:showpageshadow="2"
     inkscape:pageopacity="0"
     inkscape:pagecheckerboard="0"
     inkscape:deskcolor="#d1d1d1"
     inkscape:zoom="14.724459"
     inkscape:cx="26.894027"
     inkscape:cy="22.683346"
     inkscape:window-width="1920"
     inkscape:window-height="1080"
     inkscape:window-x="0"
     inkscape:window-y="0"
     inkscape:window-maximized="1"
     inkscape:current-layer="svg8" /><defs
     id="defs2" /><metadata
     id="metadata5"><rdf:RDF><cc:Work
         rdf:about=""><dc:format>image/svg+xml</dc:format><dc:type
           rdf:resource="http://purl.org/dc/dcmitype/StillImage" /><dc:title /></cc:Work></rdf:RDF></metadata><path
     style="opacity:1;vector-effect:none;fill:#000000;fill-opacity:1;stroke:none;stroke-width:3;stroke-linecap:round;stroke-linejoin:round;stroke-miterlimit:4;stroke-dasharray:none;stroke-dashoffset:0;stroke-opacity:1;paint-order:stroke markers fill"
     d="M 17,1 C 8.163444,1 1,8.163444 1,17 1,25.836556 8.163444,33 17,33 25.836556,33 33,25.836556 33,17 33,8.163444 25.836556,1 17,1 Z m 0,1 C 25.284271,2 32,8.7157288 32,17 32,25.284271 25.284271,32 17,32 8.7157288,32 2,25.284271 2,17 2,8.7157288 8.7157288,2 17,2 Z"
     id="path831" /><g
     id="g1"
     transform="matrix(1.8823529,0,0,1.8823529,1.9411768,1.9411768)"
     style="fill:#000000;stroke:#000000;stroke-linecap:round;stroke-linejoin:round;paint-order:stroke fill markers"><g
       id="path1"><path
         style="stroke:none"
         d="m 8,-0.5 c -4.6884981,0 -8.5,3.8115019 -8.5,8.5 0,4.688498 3.8115019,8.5 8.5,8.5 4.688498,0 8.5,-3.811502 8.5,-8.5 0,-4.6884981 -3.811502,-8.5 -8.5,-8.5 z m 0,1 c 4.148058,0 7.5,3.3519421 7.5,7.5 0,4.148058 -3.351942,7.5 -7.5,7.5 C 3.8519421,15.5 0.5,12.148058 0.5,8 0.5,3.8519421 3.8519421,0.5 8,0.5 Z m 0,1 C 4.4160714,1.5 1.5,4.4160714 1.5,8 c 0,3.583929 2.9160714,6.5 6.5,6.5 3.583929,0 6.5,-2.916071 6.5,-6.5 C 14.5,4.4160714 11.583929,1.5 8,1.5 Z m 0,1 c 3.043488,0 5.5,2.4565116 5.5,5.5 0,3.043488 -2.456512,5.5 -5.5,5.5 C 4.9565116,13.5 2.5,11.043488 2.5,8 2.5,4.9565116 4.9565116,2.5 8,2.5 Z"
         id="path2" /><path
         style="stroke:none"
         d="M 8,0 A 8,8 0 0 0 0,8 8,8 0 0 0 8,16 8,8 0 0 0 16,8 8,8 0 0 0 8,0 Z M 8,2 A 6,6 0 0 1 14,8 6,6 0 0 1 8,14 6,6 0 0 1 2,8 6,6 0 0 1 8,2 Z"
         id="path3" /></g><g
       id="rect1"><path
         style="stroke:none"
         d="M 4,6.5 A 0.50005,0.50005 0 0 0 3.5,7 V 9 A 0.50005,0.50005 0 0 0 4,9.5 h 8 A 0.50005,0.50005 0 0 0 12.5,9 V 7 A 0.50005,0.50005 0 0 0 12,6.5 Z m 0.5,1 h 7 v 1 h -7 z"
         id="path4" /><path
         style="stroke:none"
         d="m 4,7 h 8 V 9 H 4 Z"
         id="path5" /></g></g></svg>
