<?xml version="1.0" encoding="UTF-8" standalone="no"?>
<!-- Generator: Adobe Illustrator 25.0.0, SVG Export Plug-In . SVG Version: 6.00 Build 0)  -->

<svg
   version="1.1"
   id="Capa_1"
   x="0px"
   y="0px"
   viewBox="0 0 32.011875 32.011875"
   xml:space="preserve"
   width="32"
   height="32"
   sodipodi:docname="Password2.svg"
   inkscape:version="1.4 (e7c3feb100, 2024-10-09)"
   xmlns:inkscape="http://www.inkscape.org/namespaces/inkscape"
   xmlns:sodipodi="http://sodipodi.sourceforge.net/DTD/sodipodi-0.dtd"
   xmlns="http://www.w3.org/2000/svg"
   xmlns:svg="http://www.w3.org/2000/svg"><defs
   id="defs1" /><sodipodi:namedview
   id="namedview1"
   pagecolor="#ffffff"
   bordercolor="#999999"
   borderopacity="1"
   inkscape:showpageshadow="2"
   inkscape:pageopacity="0"
   inkscape:pagecheckerboard="0"
   inkscape:deskcolor="#d1d1d1"
   inkscape:zoom="11.0625"
   inkscape:cx="13.242938"
   inkscape:cy="20.338983"
   inkscape:window-width="1920"
   inkscape:window-height="1080"
   inkscape:window-x="0"
   inkscape:window-y="0"
   inkscape:window-maximized="1"
   inkscape:current-layer="Capa_1" />
















<g
   id="g1"
   transform="matrix(2.0006166,0,0,2.0006166,9.1467225e-4,0.0010047)"
   style="fill:#000000;fill-opacity:1"><path
     d="M 8,2 C 7.09734,2 6.2703,2.1249 5.5215,2.33398 l 1.7031,1.7031 C 7.47201,4.013569 7.72998,3.999971 7.99999,3.999971 c 4.3424,0 5.7012,3.2159 6,4 -0.1216,0.31914 -0.42478,1.0411 -1.0273,1.7852 l 1.4219,1.4219 c 0.89632,-1.0486 1.316,-2.0777 1.4746,-2.4941 a 2.0002,2.0002 0 0 0 0,-1.4258 c -0.18466,-0.48459 -0.72008,-1.8006 -1.9531,-3.0098 -1.2331,-1.2091 -3.2511,-2.2773 -5.916,-2.2773 z M 3.9883,2.92578 C 3.22823,3.31026 2.5896,3.78155 2.084,4.27738 0.8509,5.48648 0.3155,6.80248 0.1309,7.28718 a 2.0002,2.0002 0 0 0 0,1.4258 c 0.18466,0.48459 0.72008,1.8006 1.9531,3.0098 1.2331,1.2091 3.2511,2.2773 5.916,2.2773 2.2681,0 4.0667,-0.77411 5.3125,-1.75 l -1.4238,-1.4238 C 10.98422,11.4898 9.7296,12.00008 8,12.00008 c -4.3424,0 -5.7012,-3.2159 -6,-4 0.23121,-0.60682 1.0994,-2.6684 3.4922,-3.5703 L 3.9883,2.92588 Z m 4.209,2.084 2.793,2.793 c -0.09778,-1.4989 -1.294,-2.6952 -2.793,-2.793 z M 6.4785,5.41603 C 5.59444,5.93791 5,6.89903 5,8.00003 c 0,1.6569 1.3431,3 3,3 1.101,0 2.0621,-0.59446 2.584,-1.4785 L 8.9961,7.93363 c 0.00147,0.022198 0.00391,0.043836 0.00391,0.066406 0,0.55228 -0.44772,1 -1,1 -0.55228,0 -1,-0.44772 -1,-1 0,-0.55228 0.44772,-1 1,-1 0.022571,0 0.044208,0.00243 0.066406,0.00391 l -1.5879,-1.5879 z"
     fill="#565656"
     id="path1"
     style="fill:#000000;fill-opacity:1" /><path
     d="m 1.5312,0.46875 -1.0625,1.0625 14,14 1.0625,-1.0625 z"
     fill="#565656"
     id="path2"
     style="fill:#000000;fill-opacity:1" /></g></svg>
