<?xml version="1.0" encoding="UTF-8" standalone="no"?>
<svg
   id="Layer_1"
   data-name="Layer 1"
   viewBox="0 0 1.5 1.5"
   width="32"
   height="32"
   version="1.1"
   sodipodi:docname="Password.svg"
   xml:space="preserve"
   inkscape:version="1.4 (e7c3feb100, 2024-10-09)"
   xmlns:inkscape="http://www.inkscape.org/namespaces/inkscape"
   xmlns:sodipodi="http://sodipodi.sourceforge.net/DTD/sodipodi-0.dtd"
   xmlns="http://www.w3.org/2000/svg"
   xmlns:svg="http://www.w3.org/2000/svg"><defs
     id="defs1" /><sodipodi:namedview
     id="namedview1"
     pagecolor="#ffffff"
     bordercolor="#999999"
     borderopacity="1"
     inkscape:showpageshadow="2"
     inkscape:pageopacity="0"
     inkscape:pagecheckerboard="0"
     inkscape:deskcolor="#d1d1d1"
     inkscape:zoom="15.644737"
     inkscape:cx="19.303616"
     inkscape:cy="9.3961308"
     inkscape:window-width="1920"
     inkscape:window-height="1080"
     inkscape:window-x="0"
     inkscape:window-y="0"
     inkscape:window-maximized="1"
     inkscape:current-layer="Layer_1" /><g
     id="g1"
     transform="matrix(0.09374464,0,0,0.09374464,4.288e-5,4.288e-5)"
     style="fill:#000000;fill-opacity:1;stroke:none;stroke-width:0.54703128;stroke-dasharray:none;stroke-opacity:1"><path
       d="m 8,5 c 1.6569,0 3,1.3431 3,3 0,1.6569 -1.3431,3 -3,3 C 6.3431,11 5,9.6569 5,8 5,6.3431 6.3431,5 8,5 Z"
       fill="#565656"
       id="path1-3"
       sodipodi:nodetypes="sssss"
       style="fill:#000000;fill-opacity:1;stroke:none;stroke-width:0.54703128;stroke-dasharray:none;stroke-opacity:1" /><path
       d="M 8,2 C 5.3351,2 3.3171,3.0682 2.084,4.2773 0.8509,5.4864 0.3155,6.8024 0.1309,7.2871 a 2.0002,2.0002 0 0 0 0,1.4258 C 0.31556,9.19749 0.85095,10.5135 2.084,11.7227 3.3171,12.9318 5.3351,14 8,14 c 2.6649,0 4.6829,-1.0682 5.916,-2.2773 1.2331,-1.2091 1.7685,-2.5251 1.9531,-3.0098 a 2.0002,2.0002 0 0 0 0,-1.4258 C 15.68444,6.80251 15.14905,5.4865 13.916,4.2773 12.6829,3.0682 10.6649,2 8,2 Z m 0,2 c 4.3424,0 5.7012,3.2159 6,4 -0.29875,0.78407 -1.6576,4 -6,4 C 3.6576,12 2.2988,8.7841 2,8 2.29875,7.21593 3.6576,4 8,4 Z"
       color="#000000"
       fill="#565656"
       stroke-linecap="round"
       stroke-linejoin="round"
       style="fill:#000000;fill-opacity:1;stroke:none;stroke-width:0.54703128;stroke-dasharray:none;stroke-opacity:1"
       id="path2" /></g></svg>
