<?xml version="1.0" encoding="UTF-8" standalone="no"?>
<svg
   width="34"
   height="34"
   viewBox="0 0 34 34"
   version="1.1"
   id="svg8"
   sodipodi:docname="Reboot.svg"
   xml:space="preserve"
   inkscape:version="1.4 (e7c3feb100, 2024-10-09)"
   xmlns:inkscape="http://www.inkscape.org/namespaces/inkscape"
   xmlns:sodipodi="http://sodipodi.sourceforge.net/DTD/sodipodi-0.dtd"
   xmlns="http://www.w3.org/2000/svg"
   xmlns:svg="http://www.w3.org/2000/svg"
   xmlns:rdf="http://www.w3.org/1999/02/22-rdf-syntax-ns#"
   xmlns:cc="http://creativecommons.org/ns#"
   xmlns:dc="http://purl.org/dc/elements/1.1/"><sodipodi:namedview
     id="namedview1"
     pagecolor="#ffffff"
     bordercolor="#999999"
     borderopacity="1"
     inkscape:showpageshadow="2"
     inkscape:pageopacity="0"
     inkscape:pagecheckerboard="0"
     inkscape:deskcolor="#d1d1d1"
     inkscape:zoom="10.411765"
     inkscape:cx="19.59322"
     inkscape:cy="15.751412"
     inkscape:window-width="1920"
     inkscape:window-height="1080"
     inkscape:window-x="0"
     inkscape:window-y="0"
     inkscape:window-maximized="1"
     inkscape:current-layer="svg8" /><defs
     id="defs2" /><metadata
     id="metadata5"><rdf:RDF><cc:Work
         rdf:about=""><dc:format>image/svg+xml</dc:format><dc:type
           rdf:resource="http://purl.org/dc/dcmitype/StillImage" /><dc:title /></cc:Work></rdf:RDF></metadata><g
     id="path1"
     transform="matrix(0.94129229,0,0,0.94129229,0.99789684,0.99758015)"><path
       style="stroke-linecap:round;stroke-linejoin:round;paint-order:stroke fill markers"
       d="M 19.138672,0.14648437 C 15.496111,-0.31258287 11.706856,0.40164441 8.3730469,2.3671875 A 1.0001,1.0001 0 0 0 8.1738281,3.9355469 l 2.9492189,2.9492187 a 1.0001,1.0001 0 0 0 1.138672,0.1953125 c 4.206811,-2.0091782 9.21144,-1.1540748 12.513672,2.1367188 2.935732,2.9352831 3.811337,7.2013991 2.583984,11.0781251 l -4,-4.001953 a 1.0001,1.0001 0 0 0 -1.414063,0 l -2.832031,2.830078 a 1.0001,1.0001 0 0 0 0,1.414062 l 8.492188,8.492188 a 1.0001,1.0001 0 0 0 1.414062,0 c 1.013756,-1.015526 1.895396,-2.155841 2.623047,-3.392578 3.936568,-6.676946 2.856508,-15.183985 -2.623047,-20.6660159 a 1.0001,1.0001 0 0 0 -0.002,-0.00195 C 26.2757,2.2374959 22.781233,0.60555162 19.138672,0.14648437 Z M 18.890625,2.125 c 3.212492,0.4048662 6.293955,1.8482653 8.716797,4.2617187 4.84028,4.8442523 5.790569,12.3351033 2.3125,18.2343753 a 1.0001,1.0001 0 0 0 0,0.002 c -0.471018,0.800556 -1.08774,1.496362 -1.697266,2.195312 l -6.986328,-6.988281 1.416016,-1.416016 4.46875,4.470704 a 1.0001,1.0001 0 0 0 1.609375,-0.277344 C 31.105326,17.63498 30.086829,11.696474 26.189453,7.8008282 a 1.0001,1.0001 0 0 0 -0.002,0 C 22.474298,4.1004413 16.935568,3.1018339 12.125,5.0585937 L 10.666016,3.5996094 C 13.292902,2.361834 16.119316,1.7757355 18.890625,2.125 Z M 5.6640625,4.6777344 A 1.0001,1.0001 0 0 0 4.9550781,4.9765625 c -1.0062488,1.0214625 -1.8785323,2.1657949 -2.5976562,3.40625 -3.177e-4,5.389e-4 3.176e-4,0.00141 0,0.00195 C -1.5725384,15.052141 -0.50308255,23.54403 4.9589844,29.027344 a 1.0001,1.0001 0 0 0 0.00391,0.0039 c 5.4837566,5.462509 13.9769126,6.532648 20.6445316,2.601562 a 1.0001,1.0001 0 0 0 0.199219,-1.568359 L 22.857426,27.115228 A 1.0001,1.0001 0 0 0 21.720707,26.919916 C 17.514738,28.928691 12.509288,28.07431 9.2070351,24.78515 l -0.00195,-0.002 C 6.281624,21.848112 5.4123628,17.591482 6.6367187,13.722656 l 3.9843753,3.984375 a 1.0001,1.0001 0 0 0 1.416015,0 l 2.830079,-2.830078 a 1.0001,1.0001 0 0 0 0,-1.414062 L 6.375,4.9707031 A 1.0001,1.0001 0 0 0 5.6640625,4.6777344 Z M 5.7636719,7.1875 12.746094,14.169922 11.328125,15.585938 6.875,11.132813 a 1.0001,1.0001 0 0 0 -1.609375,0.27539 c -2.3708544,4.964088 -1.3597384,10.89239 2.5234375,14.789063 a 1.0001,1.0001 0 0 0 0.00391,0.002 c 3.7132015,3.70034 9.2519315,4.698947 14.0625005,2.742187 l 1.458984,1.458985 c -5.6703,2.671815 -12.424538,1.70896 -16.9375001,-2.783204 l -0.00195,-0.002 c -6.622e-4,-6.59e-4 -0.00129,-0.0013 -0.00195,-0.002 C 1.5495813,22.767483 0.60735069,15.288622 4.0800781,9.3984375 a 1.0001,1.0001 0 0 0 0.00391,-0.00781 C 4.5485745,8.588462 5.1604239,7.8894264 5.7636719,7.1875 Z"
       id="path2" /><path
       style="stroke-linecap:round;stroke-linejoin:round;paint-order:stroke fill markers"
       d="M 28.312761,5.6778393 A 16.011965,16.011965 0 0 0 8.8804406,3.2288093 l 2.9494034,2.949404 a 12.008974,12.008974 0 0 1 13.652402,2.330141 12.008974,12.008974 0 0 1 2.346753,13.6690147 L 22.651731,17.0001 19.821215,19.830615 28.312761,28.32216 A 16.011965,16.011965 0 0 0 30.781206,25.129575 16.011965,16.011965 0 0 0 28.312761,5.6778393 Z m -22.6449214,0 a 16.011965,16.011965 0 0 0 -2.44903,3.212 16.011965,16.011965 0 0 0 2.44903,19.4323207 16.011965,16.011965 0 0 0 19.4323204,2.449031 L 22.150756,27.821787 A 12.008974,12.008974 0 0 1 8.4983546,25.491645 12.008974,12.008974 0 0 1 6.1682136,11.839243 l 5.1608554,5.160857 2.830516,-2.830515 z"
       id="path3" /></g></svg>
