<?xml version="1.0" encoding="UTF-8" standalone="no"?>
<svg
   id="svg8"
   version="1.1"
   viewBox="0 0 34 34"
   height="34"
   width="34"
   sodipodi:docname="Shutdown.svg"
   xml:space="preserve"
   inkscape:version="1.4 (e7c3feb100, 2024-10-09)"
   xmlns:inkscape="http://www.inkscape.org/namespaces/inkscape"
   xmlns:sodipodi="http://sodipodi.sourceforge.net/DTD/sodipodi-0.dtd"
   xmlns="http://www.w3.org/2000/svg"
   xmlns:svg="http://www.w3.org/2000/svg"
   xmlns:rdf="http://www.w3.org/1999/02/22-rdf-syntax-ns#"
   xmlns:cc="http://creativecommons.org/ns#"
   xmlns:dc="http://purl.org/dc/elements/1.1/"><sodipodi:namedview
     id="namedview1"
     pagecolor="#ffffff"
     bordercolor="#999999"
     borderopacity="1"
     inkscape:showpageshadow="2"
     inkscape:pageopacity="0"
     inkscape:pagecheckerboard="0"
     inkscape:deskcolor="#d1d1d1"
     inkscape:zoom="14.724459"
     inkscape:cx="16.978553"
     inkscape:cy="11.273759"
     inkscape:window-width="1920"
     inkscape:window-height="1080"
     inkscape:window-x="0"
     inkscape:window-y="0"
     inkscape:window-maximized="1"
     inkscape:current-layer="svg8" /><defs
     id="defs2" /><metadata
     id="metadata5"><rdf:RDF><cc:Work
         rdf:about=""><dc:format>image/svg+xml</dc:format><dc:type
           rdf:resource="http://purl.org/dc/dcmitype/StillImage" /></cc:Work></rdf:RDF></metadata><g
     id="g1"
     transform="matrix(2.0078431,0,0,2.0078431,0.93725802,1.9411768)"
     style="fill:#000000;stroke:#000000;stroke-width:0.937508;stroke-linecap:round;stroke-linejoin:round;paint-order:stroke fill markers"><g
       id="rect1"><path
         style="color:#bebebe;stroke:none"
         d="M 7,-0.46875 A 0.46880096,0.46880096 0 0 0 6.53125,0 V 7.0039062 A 0.46880096,0.46880096 0 0 0 7,7.4726562 h 2 a 0.46880096,0.46880096 0 0 0 0.46875,-0.46875 V 0 A 0.46880096,0.46880096 0 0 0 9,-0.46875 Z m 0.46875,0.9375 h 1.0625 v 6.0664062 h -1.0625 z"
         id="path2" /><path
         style="color:#bebebe;stroke:none"
         d="M 7,0 H 9 V 7.0029998 H 7 Z"
         id="path3" /></g><g
       id="path1"><path
         style="stroke:none"
         d="m 11.910156,2.0117188 -1.414062,1.4140625 a 0.46880096,0.46880096 0 0 0 0,0.6640624 L 11.203125,4.796875 C 12.053401,5.64697 12.531069,6.7976229 12.53125,8 c 0,2.52239 -2.00886,4.53125 -4.53125,4.53125 -2.5210884,0 -4.5293401,-2.006757 -4.53125,-4.5273437 V 8.0019531 8 C 3.474284,6.8010897 3.9529024,5.6542496 4.8027344,4.8085937 L 5.5117187,4.1035156 a 0.46880096,0.46880096 0 0 0 0.00195,-0.6621093 L 4.1035156,2.0234375 A 0.46880096,0.46880096 0 0 0 3.4414063,2.0214844 L 2.7324219,2.7265625 C 1.3306518,4.1216113 0.53797183,6.0163211 0.53125,7.9941406 a 0.46880096,0.46880096 0 0 0 0,0.00195 c -3.74e-6,0.00191 -3.74e-6,0.00395 0,0.00586 C 0.53233629,12.110226 3.8914849,15.46875 8,15.46875 12.10918,15.46875 15.46875,12.10918 15.46875,8 15.468451,6.0197917 14.681662,4.1187783 13.28125,2.71875 L 12.574219,2.0117188 a 0.46880096,0.46880096 0 0 0 -0.664063,0 z m 0.332032,0.9960937 0.375,0.375 C 13.841895,4.6071842 14.530989,6.2682083 14.53125,8 c 0,3.59902 -2.93223,6.53125 -6.53125,6.53125 -3.5990204,0 -6.53125,-2.93223 -6.53125,-6.53125 0,0 0,-0.00195 0,-0.00195 C 1.47463,6.2684695 2.1665482,4.6107793 3.3925781,3.3906281 l 0.3769532,-0.375 0.7499999,0.7539063 -0.3769531,0.3749999 C 3.1166517,5.1654162 2.5373078,6.551065 2.53125,7.9980469 a 0.46880096,0.46880096 0 0 0 0,0.00195 v 0.00195 0.00195 C 2.5335401,11.026119 4.9772884,13.46875 8,13.46875 11.02421,13.46875 13.46875,11.02421 13.46875,8 13.468531,6.5495771 12.892911,5.1583175 11.867188,4.1328125 l -0.376954,-0.375 z"
         id="path4" /><path
         style="stroke:none"
         d="m 12.242,2.3438 -1.4141,1.4141 0.70703,0.70703 c 0.938,0.9378 1.4646,2.2088 1.4648,3.5352 0,2.7733 -2.2267,5 -5,5 -2.7719,0 -4.9979,-2.2247 -5,-4.9961 V 8.00208 c -3e-7,-6.704e-4 0,-0.00129 0,-0.00196 0.00554,-1.3233 0.53459,-2.5899 1.4727,-3.5234 L 5.18141,3.77164 3.77121,2.35364 3.06223,3.05872 c -1.3139,1.3076 -2.0562,3.0838 -2.0625,4.9375 a 1.0001,1.0001 0 0 0 0,0.00391 c 0,3.8541 3.1459,7 7,7 3.8541,0 7,-3.1459 7,-7 -2.8e-4,-1.856 -0.73824,-3.637 -2.0508,-4.9492 z"
         id="path5" /></g></g></svg>
