<?xml version="1.0" encoding="UTF-8" standalone="no"?>
<svg
   id="svg8"
   version="1.1"
   viewBox="0 0 34 34"
   height="34"
   width="34"
   sodipodi:docname="Suspend.svg"
   xml:space="preserve"
   inkscape:version="1.4 (e7c3feb100, 2024-10-09)"
   xmlns:inkscape="http://www.inkscape.org/namespaces/inkscape"
   xmlns:sodipodi="http://sodipodi.sourceforge.net/DTD/sodipodi-0.dtd"
   xmlns="http://www.w3.org/2000/svg"
   xmlns:svg="http://www.w3.org/2000/svg"
   xmlns:rdf="http://www.w3.org/1999/02/22-rdf-syntax-ns#"
   xmlns:cc="http://creativecommons.org/ns#"
   xmlns:dc="http://purl.org/dc/elements/1.1/"><sodipodi:namedview
     id="namedview1"
     pagecolor="#ffffff"
     bordercolor="#999999"
     borderopacity="1"
     inkscape:showpageshadow="2"
     inkscape:pageopacity="0"
     inkscape:pagecheckerboard="0"
     inkscape:deskcolor="#d1d1d1"
     inkscape:zoom="12.478355"
     inkscape:cx="6.2107546"
     inkscape:cy="8.7351258"
     inkscape:window-width="1920"
     inkscape:window-height="1080"
     inkscape:window-x="0"
     inkscape:window-y="0"
     inkscape:window-maximized="1"
     inkscape:current-layer="svg8" /><defs
     id="defs2" /><metadata
     id="metadata5"><rdf:RDF><cc:Work
         rdf:about=""><dc:format>image/svg+xml</dc:format><dc:type
           rdf:resource="http://purl.org/dc/dcmitype/StillImage" /></cc:Work></rdf:RDF></metadata><circle
     style="fill:#000000;fill-opacity:0.2476576;stroke:none;stroke-width:89.5258;stroke-linecap:round;stroke-linejoin:round"
     id="path3"
     cx="17"
     cy="17"
     r="16" /><path
     d="M 17.102259,1.000164 C 8.2605073,1.000164 1.1,8.201181 1.1,17.002423 1.1,25.811627 8.2930557,33 17.102259,33 c 4.472391,0 8.511357,-2.062709 11.460794,-5.195466 1.603256,-1.706049 -0.01278,-4.449094 -2.282114,-3.873652 -1.117278,0.284711 -1.755987,0.484774 -2.350698,0.484774 -5.739411,0 -10.340354,-4.600942 -10.340354,-10.340354 6e-6,-0.003 6e-6,-0.0061 0,-0.0091 -0.0094,-3.545364 1.788675,-6.84182 4.774687,-8.753475 C 20.331437,4.0506352 19.439298,1.0024514 17.10233,1 Z"
     color="#000000"
     fill="#565656"
     stroke-linecap="round"
     stroke-linejoin="round"
     style="fill:#000000;fill-opacity:1;stroke-width:2.34157;-inkscape-stroke:none"
     id="path1"
     sodipodi:nodetypes="cssccsccccc" /><path
     d="M 17.002259,1.000164 C 8.1605073,1.000164 1,8.201181 1,17.002423 1,25.811627 8.1930557,33 17.002259,33 c 4.472391,0 8.511357,-2.062709 11.460794,-5.195466 1.603256,-1.706049 -0.01278,-4.449094 -2.282114,-3.873652 -1.117278,0.284711 -1.755987,0.484774 -2.350698,0.484774 -5.739411,0 -10.340354,-4.600942 -10.340354,-10.340354 6e-6,-0.003 6e-6,-0.0061 0,-0.0091 -0.0094,-3.545364 1.788675,-6.84182 4.774687,-8.753475 C 20.231437,4.0506352 19.339298,1.0024514 17.00233,1 Z"
     color="#000000"
     fill="#565656"
     stroke-linecap="round"
     stroke-linejoin="round"
     style="fill:#000000;fill-opacity:1;stroke-width:2.34157;-inkscape-stroke:none"
     id="path2"
     sodipodi:nodetypes="cssccsccccc" /></svg>
