<?xml version="1.0" encoding="UTF-8" standalone="no"?>
<svg
   height="28"
   width="28"
   id="svg12"
   xml:space="preserve"
   viewBox="0 0 28 28"
   y="0px"
   x="0px"
   version="1.1"
   sodipodi:docname="User.svg"
   inkscape:version="1.4 (e7c3feb100, 2024-10-09)"
   xmlns:inkscape="http://www.inkscape.org/namespaces/inkscape"
   xmlns:sodipodi="http://sodipodi.sourceforge.net/DTD/sodipodi-0.dtd"
   xmlns="http://www.w3.org/2000/svg"
   xmlns:svg="http://www.w3.org/2000/svg"
   xmlns:rdf="http://www.w3.org/1999/02/22-rdf-syntax-ns#"
   xmlns:cc="http://creativecommons.org/ns#"
   xmlns:dc="http://purl.org/dc/elements/1.1/"><sodipodi:namedview
     pagecolor="#ffffff"
     bordercolor="#666666"
     borderopacity="1"
     objecttolerance="10"
     gridtolerance="10"
     guidetolerance="10"
     inkscape:pageopacity="0"
     inkscape:pageshadow="2"
     inkscape:window-width="1920"
     inkscape:window-height="1080"
     id="namedview8"
     showgrid="false"
     fit-margin-top="0"
     fit-margin-left="0"
     fit-margin-right="0"
     fit-margin-bottom="0"
     inkscape:zoom="13.088408"
     inkscape:cx="30.484992"
     inkscape:cy="23.073854"
     inkscape:window-x="0"
     inkscape:window-y="0"
     inkscape:window-maximized="1"
     inkscape:current-layer="svg12"
     inkscape:showpageshadow="2"
     inkscape:pagecheckerboard="0"
     inkscape:deskcolor="#d1d1d1" /><metadata
     id="metadata18"><rdf:RDF><cc:Work
         rdf:about=""><dc:format>image/svg+xml</dc:format><dc:type
           rdf:resource="http://purl.org/dc/dcmitype/StillImage" /><dc:title /></cc:Work></rdf:RDF></metadata><defs
     id="defs16" /><g
     id="path1"
     transform="matrix(0.93333333,0,0,0.93333333,0.93333344,0.93333338)"><path
       style="stroke-linecap:round;stroke-linejoin:round;paint-order:stroke fill markers"
       d="m 14,-1 c -4.1135376,0 -7.4609375,3.3474008 -7.4609375,7.4609375 0,4.0952615 3.3433839,7.4628905 7.4609375,7.4628905 4.117554,0 7.460937,-3.36763 7.460937,-7.4628905 C 21.460937,2.347401 18.113538,-1 14,-1 Z m 0,2 c 3.037232,0 5.460938,2.423706 5.460937,5.4609375 0,3.0124331 -2.427721,5.4628905 -5.460937,5.4628905 -3.033216,0 -5.4609375,-2.4504575 -5.4609375,-5.4628905 C 8.5390625,3.4237062 10.962768,1 14,1 Z m 0,2.3085938 c -1.729977,-1e-7 -3.154297,1.4223671 -3.154297,3.1523437 0,1.7299771 1.42432,3.1542969 3.154297,3.1542969 1.729977,0 3.154297,-1.4243198 3.154297,-3.1542969 0,-1.7299766 -1.42432,-3.1523438 -3.154297,-3.1523437 z m 0,1.9999999 c 0.649075,0 1.154297,0.5032684 1.154297,1.1523438 0,0.6490769 -0.505222,1.1542969 -1.154297,1.1542969 -0.649075,0 -1.154297,-0.50522 -1.154297,-1.1542969 0,-0.6490754 0.505222,-1.1523438 1.154297,-1.1523438 z m 0,8.7675783 c -3.748756,0 -7.1594092,1.002106 -9.6933594,2.691406 -2.5339502,1.6893 -4.23046892,4.139425 -4.23046873,6.923828 V 28 A 1.0001,1.0001 0 0 0 1.0761719,29 H 26.923828 a 1.0001,1.0001 0 0 0 1,-1 v -4.308594 c 0,-2.784403 -1.696518,-5.234528 -4.230469,-6.923828 C 21.159409,15.078278 17.748756,14.076172 14,14.076172 Z m 0,2 c 3.388463,0 6.440701,0.926613 8.583984,2.355469 2.143284,1.428856 3.339844,3.286023 3.339844,5.259765 V 27 H 2.0761719 v -3.308594 c -2e-7,-1.973742 1.19656,-3.830909 3.3398437,-5.259765 C 7.5592994,17.002785 10.611537,16.076172 14,16.076172 Z m 0,2.308594 c -2.514183,0 -4.7980045,0.496658 -6.5390625,1.367187 -1.741058,0.870529 -3.0761724,2.209477 -3.0761719,3.939453 a 1.0001,1.0001 0 0 0 1,1 H 22.615234 a 1.0001,1.0001 0 0 0 1,-1 c 10e-7,-1.729976 -1.335113,-3.068924 -3.076172,-3.939453 C 18.798004,18.881424 16.514183,18.384766 14,18.384766 Z m 0,2 c 2.243963,0 4.267433,0.467701 5.644531,1.15625 0.727999,0.363999 1.211193,0.759189 1.529297,1.15039 H 6.8261719 C 7.1442759,22.300205 7.6274704,21.905015 8.3554688,21.541016 9.7325667,20.852467 11.756037,20.384766 14,20.384766 Z"
       id="path2" /><path
       style="stroke-linecap:round;stroke-linejoin:round;paint-order:stroke fill markers"
       d="m 14,0 c -3.575385,0 -6.461539,2.886154 -6.461539,6.461538 0,3.553847 2.886154,6.461539 6.461539,6.461539 3.575385,0 6.461538,-2.907692 6.461538,-6.461539 C 20.461538,2.886154 17.575385,0 14,0 Z m 0,15.076923 c -7.1372186,0 -12.9230773,3.857239 -12.923077,8.615385 V 28 h 25.846154 v -4.307692 c 0,-4.758146 -5.785858,-8.615385 -12.923077,-8.615385 z"
       id="path3"
       sodipodi:nodetypes="sssssssccss" /></g></svg>
