<?xml version="1.0" encoding="UTF-8" standalone="no"?>
<svg
   width="256"
   height="256"
   viewBox="0 0 67.732 67.732"
   version="1.1"
   id="svg5"
   sodipodi:docname="4download.svg"
   xml:space="preserve"
   inkscape:version="1.4.1 (93de688d07, 2025-03-30)"
   inkscape:export-filename="4download.png"
   inkscape:export-xdpi="96"
   inkscape:export-ydpi="96"
   xmlns:inkscape="http://www.inkscape.org/namespaces/inkscape"
   xmlns:sodipodi="http://sodipodi.sourceforge.net/DTD/sodipodi-0.dtd"
   xmlns="http://www.w3.org/2000/svg"
   xmlns:svg="http://www.w3.org/2000/svg"><sodipodi:namedview
     id="namedview5"
     pagecolor="#ffffff"
     bordercolor="#999999"
     borderopacity="1"
     inkscape:showpageshadow="2"
     inkscape:pageopacity="0"
     inkscape:pagecheckerboard="0"
     inkscape:deskcolor="#d1d1d1"
     showguides="false"
     inkscape:zoom="2.0126585"
     inkscape:cx="44.22012"
     inkscape:cy="51.176094"
     inkscape:window-width="1920"
     inkscape:window-height="1080"
     inkscape:window-x="0"
     inkscape:window-y="0"
     inkscape:window-maximized="1"
     inkscape:current-layer="svg5" /><defs
     id="defs2"><linearGradient
       id="a"
       x1="-197.72"
       x2="-197.72"
       y1="263.85999"
       y2="273.76001"
       gradientTransform="matrix(0.18708631,-0.18708631,0.18708631,0.18708631,1.11919,-74.449564)"
       gradientUnits="userSpaceOnUse"><stop
         offset="0"
         id="stop1" /><stop
         stop-opacity="0"
         offset="1"
         id="stop2" /></linearGradient><style
       id="current-color-scheme"
       type="text/css">.ColorScheme-Text { color:#565656; } .ColorScheme-Highlight { color:#5294e2; }</style></defs><g
     id="g1"><rect
       style="fill:#f6f6f6;fill-opacity:1;fill-rule:evenodd;stroke:none;stroke-width:2.72463;stroke-linecap:round;stroke-linejoin:round;stroke-dasharray:none;stroke-opacity:1;paint-order:stroke fill markers"
       id="rect10"
       width="67.732002"
       height="67.732002"
       x="-2.220446e-16"
       y="0"
       ry="13.228906" /><g
       id="g6"
       transform="matrix(3.4716736,0,0,3.4716736,4.4728671,1.1176824)"><path
         d="m 7.1441892,2.3769867 -3.70412,0.00106 c -0.2936838,0 -0.395018,0.2680196 -0.5296892,0.5286309 v 0.0037 H 2.6458 c -0.5863093,0 -1.05832,0.4720107 -1.05832,1.05832 v 7.4082404 c 0,0.586309 0.4720107,1.05832 1.05832,1.05832 h 11.64152 c 0.586309,0 1.05832,-0.472011 1.05832,-1.05832 V 3.9687 c 0,-0.5863093 -0.472011,-1.05832 -1.05832,-1.05832 H 9.8267658 C 9.8143308,2.9095863 9.8024248,2.90668 9.7897248,2.90668 H 7.6738783 C 7.5188344,2.6579707 7.4384021,2.3769867 7.1441892,2.3769867 Z"
         fill="#5677fc"
         style="fill:#d6b34a;fill-opacity:1;stroke-width:0.26458;paint-order:stroke fill markers"
         id="path2" /><path
         id="rect3"
         style="fill:#ffffff;paint-order:markers stroke fill"
         d="m 2.914,3.7 h 11.105 c 0.295282,0 0.533,0.237718 0.533,0.533 v 3.961 c 0,0.295282 -0.237718,0.533 -0.533,0.533 H 2.914 C 2.618718,8.727 2.381,8.489282 2.381,8.194 V 4.233 C 2.381,3.937718 2.618718,3.7 2.914,3.7 Z" /><path
         id="rect4"
         style="opacity:0.25;paint-order:stroke markers fill"
         d="m 3.969,2.6400001 h 2.645 c 0.14681,0 0.2649999,0.117967 0.2649999,0.2645 0,0.146533 -0.1181899,0.2645 -0.2649999,0.2645 H 3.969 c -0.14681,0 -0.265,-0.117967 -0.265,-0.2645 0,-0.146533 0.11819,-0.2645 0.265,-0.2645 z" /><path
         d="M 8.99572,4.23328 8.20198,5.2916 h -6.6145 c -0.5863093,0 -1.05832,0.4720107 -1.05832,1.05832 v 7.40824 c 0,0.586309 0.4720107,1.05832 1.05832,1.05832 h 13.75816 c 0.586309,0 1.05832,-0.472011 1.05832,-1.05832 V 5.2916 c 0,-0.5863093 -0.472011,-1.05832 -1.05832,-1.05832 z"
         fill="#5677fc"
         style="fill:#fccd56;fill-opacity:1;stroke-width:0.26458;paint-order:stroke fill markers"
         id="path4" /><path
         d="m 16.40396,10.5832 -4.23328,4.23328 h 3.17496 c 0.586309,0 1.05832,-0.472011 1.05832,-1.05832 z"
         fill="url(#a)"
         opacity="0.2"
         style="fill:url(#a);stroke-width:0.26458;paint-order:stroke fill markers"
         id="path5" /></g><path
       style="color:#565656;baseline-shift:baseline;display:inline;overflow:visible;vector-effect:none;fill:#000000;stroke-width:0.813679;stroke-linejoin:round;paint-order:stroke fill markers;enable-background:accumulate;stop-color:#000000;fill-opacity:1"
       d="m 33.866795,25.106235 c -1.823263,0 -3.326233,1.501384 -3.326233,3.324642 v 9.708529 l -2.159746,-2.159747 c -1.289054,-1.289045 -3.414927,-1.288947 -4.704083,0 -1.28926,1.289064 -1.288923,3.413383 0,4.702494 l 7.806235,7.804647 c 0.31499,0.323984 0.695657,0.580188 1.11722,0.753289 6.9e-4,2.83e-4 8.95e-4,0.0013 0.0016,0.0016 0.796284,0.329029 1.692792,0.334782 2.49825,0.01272 0.0015,-5.91e-4 0.0033,5.93e-4 0.0048,0 a 1.1085965,1.1085965 0 0 0 0.03178,-0.01272 c 0.406167,-0.167398 0.775294,-0.412953 1.085436,-0.723094 l 7.83802,-7.83643 c 1.289054,-1.289054 1.288955,-3.413339 0,-4.702494 -1.289053,-1.289056 -3.41334,-1.290548 -4.702494,-0.0016 l -2.166103,2.164514 v -9.711707 c 0,-1.823259 -1.501386,-3.324642 -3.324642,-3.324642 z m 1.238,24.148156 c 0.0051,-0.002 0.01078,-0.0011 0.01589,-0.0032 a 1.1085965,1.1085965 0 0 0 0.0048,-0.0032 c 0.263894,-0.109198 0.06791,-0.0295 -0.02066,0.0063 z m -1.238,-21.931199 c 0.630993,0 1.107684,0.476692 1.107684,1.107685 v 12.38477 a 1.1085965,1.1085965 0 0 0 1.892758,0.783485 l 4.057272,-4.052505 c 0.44811,-0.448042 1.119023,-0.447944 1.566969,0 0.448042,0.448114 0.447946,1.119022 0,1.566968 l -7.838021,7.838021 c -0.09827,0.09827 -0.223658,0.18347 -0.360752,0.239972 l 0.04291,-0.01748 c -0.41523,0.151124 -0.357734,0.147 -0.05244,0.02384 -5.03e-4,2.05e-4 -0.0011,-2.04e-4 -0.0016,0 -0.264119,0.107125 -0.564586,0.105586 -0.834339,-0.0063 a 1.1085965,1.1085965 0 0 0 -0.0048,-0.0016 c -0.143561,-0.05884 -0.266718,-0.142981 -0.370287,-0.249508 a 1.1085965,1.1085965 0 0 0 -0.01112,-0.01112 l -7.815771,-7.815771 c -0.448074,-0.448139 -0.448004,-1.119032 0,-1.566968 0.448109,-0.448035 1.119026,-0.447939 1.566969,0 l 4.052503,4.052504 a 1.1085965,1.1085965 0 0 0 1.892758,-0.783484 v -12.38475 c 0,-0.630995 0.478284,-1.107685 1.109275,-1.107685 z M 20.563456,47.275816 a 1.1085965,1.1085965 0 0 0 -1.107685,1.109274 v 4.433916 c 0,3.051398 2.490209,5.54319 5.541601,5.54319 h 17.737255 c 3.051394,0 5.541601,-2.491793 5.541601,-5.54319 V 48.38509 a 1.1085965,1.1085965 0 0 0 -1.107685,-1.109274 h -4.433916 a 1.1085965,1.1085965 0 0 0 -1.109274,1.109274 v 3.324642 H 26.106646 V 48.38509 a 1.1085965,1.1085965 0 0 0 -1.109274,-1.109274 z m 1.109273,2.216958 h 2.216959 v 3.326232 a 1.1085965,1.1085965 0 0 0 1.107684,1.107685 h 17.737255 a 1.1085965,1.1085965 0 0 0 1.107684,-1.107685 v -3.326232 h 2.216959 v 3.326232 c 0,1.861545 -1.4631,3.326232 -3.324643,3.326232 H 24.997372 c -1.861541,0 -3.324643,-1.464688 -3.324643,-3.326232 z"
       id="path8" /><path
       style="color:#565656;baseline-shift:baseline;display:inline;overflow:visible;vector-effect:none;fill:#2bff00;stroke-width:0.813679;stroke-linejoin:round;paint-order:stroke fill markers;enable-background:accumulate;stop-color:#000000"
       d="m 33.866,26.214613 c -1.227126,0 -2.217029,0.98991 -2.217029,2.217036 v 12.3841 l -4.05295,-4.052956 c -0.868498,-0.868492 -2.266468,-0.868492 -3.1351,0 -0.868632,0.8685 -0.868498,2.266475 0,3.135101 l 7.815913,7.815915 c 0.209537,0.21552 0.46181,0.386294 0.744785,0.502266 0.537117,0.222894 1.141792,0.227671 1.680086,0.0084 0.0047,-0.002 0.0083,-0.0067 0.01299,-0.0084 0.27163,-0.11195 0.518917,-0.276439 0.723125,-0.480647 l 7.837649,-7.837635 c 0.868499,-0.8685 0.868499,-2.266467 0,-3.135101 -0.868498,-0.8685 -2.266468,-0.8685 -3.1351,0 l -4.057384,4.052965 v -12.3841 c 0,-1.227126 -0.989904,-2.217028 -2.217029,-2.217028 z M 20.563829,48.384905 v 4.434055 c 0,2.456471 1.97759,4.434055 4.434056,4.434055 h 17.736229 c 2.456468,0 4.434057,-1.977584 4.434057,-4.434055 V 48.384905 H 42.734114 V 52.81896 H 24.997885 v -4.434055 z"
       id="path9" /></g></svg>
