<?xml version="1.0" encoding="UTF-8" standalone="no"?>
<svg
   id="Layer_1"
   data-name="Layer 1"
   viewBox="0 0 256 256.00001"
   preserveAspectRatio="xMinYMid"
   version="1.1"
   sodipodi:docname="alza_cz.svg"
   width="256"
   height="256"
   inkscape:version="1.4.1 (93de688d07, 2025-03-30)"
   inkscape:export-filename="alza_cz.png"
   inkscape:export-xdpi="96"
   inkscape:export-ydpi="96"
   xmlns:inkscape="http://www.inkscape.org/namespaces/inkscape"
   xmlns:sodipodi="http://sodipodi.sourceforge.net/DTD/sodipodi-0.dtd"
   xmlns="http://www.w3.org/2000/svg"
   xmlns:svg="http://www.w3.org/2000/svg"
   xmlns:rdf="http://www.w3.org/1999/02/22-rdf-syntax-ns#"
   xmlns:cc="http://creativecommons.org/ns#"
   xmlns:dc="http://purl.org/dc/elements/1.1/">
  <sodipodi:namedview
     id="namedview4"
     pagecolor="#ffffff"
     bordercolor="#999999"
     borderopacity="1"
     inkscape:showpageshadow="2"
     inkscape:pageopacity="0"
     inkscape:pagecheckerboard="0"
     inkscape:deskcolor="#d1d1d1"
     showguides="true"
     inkscape:zoom="1.9755207"
     inkscape:cx="209.565"
     inkscape:cy="63.780653"
     inkscape:window-width="1920"
     inkscape:window-height="1080"
     inkscape:window-x="0"
     inkscape:window-y="0"
     inkscape:window-maximized="1"
     inkscape:current-layer="Layer_1" />
  <defs
     id="defs1">
    <style
       id="style1">.cls-1{fill:#fff;}.cls-1,.cls-2,.cls-3{fill-rule:evenodd;}.cls-2,.cls-5{fill:#231f20;}.cls-3{fill:#043266;}.cls-4{fill:#093266;}</style>
  </defs>
  <title
     id="title1">alza_cz</title>
  <metadata
     id="metadata4">
    <rdf:RDF>
      <cc:Work
         rdf:about="">
        <dc:title>alza_cz</dc:title>
      </cc:Work>
    </rdf:RDF>
  </metadata>
  <g
     id="g6">
    <path
       id="rect4"
       style="fill:#ffffff;fill-rule:evenodd;stroke-width:20;stroke-linecap:round;stroke-linejoin:round;paint-order:stroke fill markers"
       d="m 50,0 h 156 c 27.7,0 50,22.3 50,50 v 156 c 0,27.7 -22.3,50 -50,50 H 50 C 22.3,256 0,233.7 0,206 V 50 C 0,22.3 22.3,0 50,0 Z" />
    <path
       id="rect6"
       style="fill:#231f20;fill-rule:evenodd;stroke-width:20;stroke-linecap:round;stroke-linejoin:round;paint-order:stroke fill markers"
       d="m 25,76 h 130 c 13.85,0 25,11.15 25,25 v 130 c 0,13.85 -11.15,25 -25,25 H 25 C 11.15,256 0,244.85 0,231 V 101 C 0,87.15 11.15,76 25,76 Z" />
    <path
       id="rect5"
       style="fill:#043266;fill-rule:evenodd;stroke-width:20;stroke-linecap:round;stroke-linejoin:round;paint-order:stroke fill markers"
       d="m 101,0 h 130 c 13.85,0 25,11.15 25,25 v 130 c 0,13.85 -11.15,25 -25,25 H 101 C 87.15,180 76,168.85 76,155 V 25 C 76,11.15 87.15,0 101,0 Z" />
    <path
       id="polygon1"
       class="cls-1"
       d="m 144.19184,66.520718 c -16.47278,0 -33.55634,3.058764 -47.155541,11.325665 l 0.08264,-0.01838 a 52.718664,52.718664 0 0 0 -3.828297,2.492993 52.718664,52.718664 0 0 0 -2.587935,1.975398 52.718664,52.718664 0 0 0 -9.230829,9.693289 52.718664,52.718664 0 0 0 -0.07354,0.110236 52.718664,52.718664 0 0 0 -3.50979,5.479072 c -0.488863,0.882998 -0.888047,1.86466 -1.335309,2.793139 a 52.718664,52.718664 0 0 0 -1.577264,3.32908 l 42.040955,3.47917 c 1.92872,-8.373524 10.97714,-13.01319 19.05271,-13.01319 9.81411,0 13.37899,6.18286 11.91982,14.03305 -0.1372,0.75452 -0.32203,1.52451 -0.55127,2.30618 -24.90113,0 -57.158358,4.09885 -74.333492,23.29141 -2.274774,2.56008 -4.281141,5.38657 -5.966037,8.50803 l -0.01568,-0.0613 c -1.059579,1.93811 -1.994371,3.99032 -2.793133,6.16205 -3.99859,10.97652 -3.02712,24.4148 5.910904,32.80399 1.94355,1.82272 4.200354,3.32821 6.734755,4.53273 l -0.02148,-0.0949 a 45.380075,45.380075 0 0 0 12.039267,3.40259 c 1.992614,0.24673 4.074657,0.38988 6.235542,0.42878 a 45.380075,45.380075 0 0 0 1.34144,-0.0215 c 7.444924,0 16.077474,-1.35631 23.913134,-4.38266 7.90449,-3.06844 14.98502,-7.84041 19.20892,-14.63638 l -0.0157,0.14395 c 0.0372,-0.0588 0.0736,-0.11855 0.11024,-0.17763 l -1.39656,12.78042 0.68909,4.42245 h 19.20586 l 0.0674,-0.0157 0.0157,0.0157 h -0.0826 l -0.1347,0.0306 h 24.7431 c -1.08442,-4.32828 -1.07352,-9.16488 -0.73809,-13.96566 a 77.666729,77.666729 0 0 1 0.36139,-3.43322 c 0.21632,-1.96381 0.32604,-4.02569 0.60947,-5.84047 1.7876,-10.33361 4.35912,-21.24557 6.53874,-32.22209 l 0.046,0.19906 c 2.32672,-11.72059 4.20501,-23.50777 4.20501,-34.712026 0,-14.876496 -7.66477,-22.715936 -18.11249,-26.807324 l 0.0157,0.07041 c -8.63569,-3.416661 -19.26005,-4.247694 -29.00938,-4.358151 l 0.14081,-0.03371 c -0.92883,-0.01098 -1.84876,-0.01568 -2.75945,-0.01568 z m 0,65.782562 0.0643,0.0157 c -0.0218,0 -0.0455,-3e-5 -0.0674,0 -1.62958,9.10921 -3.0103,21.64286 -11.45736,26.76752 -4.54742,2.79117 -15.88411,5.31455 -19.49068,0.31239 a 10.474738,10.474738 0 0 1 -1.56807,-3.84056 12.246662,12.246662 0 0 1 1.56807,-9.70857 c 5.75868,-9.98378 20.32206,-13.5163 30.94804,-13.53078 9.4e-4,-0.005 0.002,-0.009 0.003,-0.0157 z"
       style="stroke-width:1.56807" />
  </g>
</svg>
