<?xml version="1.0" encoding="UTF-8" standalone="no"?>
<svg
   viewBox="0 0 256 256"
   height="256"
   width="256"
   xml:space="preserve"
   id="svg2"
   version="1.1"
   sodipodi:docname="bandcamp.svg"
   inkscape:version="1.4.1 (93de688d07, 2025-03-30)"
   inkscape:export-filename="bandcamp.png"
   inkscape:export-xdpi="96"
   inkscape:export-ydpi="96"
   xmlns:inkscape="http://www.inkscape.org/namespaces/inkscape"
   xmlns:sodipodi="http://sodipodi.sourceforge.net/DTD/sodipodi-0.dtd"
   xmlns="http://www.w3.org/2000/svg"
   xmlns:svg="http://www.w3.org/2000/svg"
   xmlns:rdf="http://www.w3.org/1999/02/22-rdf-syntax-ns#"
   xmlns:cc="http://creativecommons.org/ns#"
   xmlns:dc="http://purl.org/dc/elements/1.1/"><sodipodi:namedview
     id="namedview1"
     pagecolor="#ffffff"
     bordercolor="#999999"
     borderopacity="1"
     inkscape:showpageshadow="2"
     inkscape:pageopacity="0"
     inkscape:pagecheckerboard="0"
     inkscape:deskcolor="#d1d1d1"
     inkscape:zoom="2.2067497"
     inkscape:cx="89.271565"
     inkscape:cy="108.75724"
     inkscape:window-width="1920"
     inkscape:window-height="1080"
     inkscape:window-x="0"
     inkscape:window-y="0"
     inkscape:window-maximized="1"
     inkscape:current-layer="svg2" /><metadata
     id="metadata8"><rdf:RDF><cc:Work
         rdf:about=""><dc:format>image/svg+xml</dc:format><dc:type
           rdf:resource="http://purl.org/dc/dcmitype/StillImage" /></cc:Work></rdf:RDF></metadata><defs
     id="defs6"><clipPath
       id="clipPath26"
       clipPathUnits="userSpaceOnUse"><path
         id="path24"
         d="M 0,0 H 5120 V 5120 H 0 Z" /></clipPath><clipPath
       id="clipPath42"
       clipPathUnits="userSpaceOnUse"><path
         id="path40"
         d="M 0,0 H 5120 V 5120 H 0 Z" /></clipPath><clipPath
       clipPathUnits="userSpaceOnUse"
       id="clipPath6"><path
         style="clip-rule:evenodd;stroke-width:0.05"
         id="path6"
         d="m 128,256.00002 c 70.6925,0 128,-57.3075 128,-128 0,-70.6925 -57.3075,-128 -128,-128 -70.6925,0 -128,57.3075 -128,128 0,70.6925 57.3075,128 128,128 z" /></clipPath><clipPath
       clipPathUnits="userSpaceOnUse"
       id="clipPath7"><path
         style="clip-rule:evenodd;stroke-width:0.05"
         id="path7"
         d="M 152.889,168.25252 H 59.4985 l 43.6115,-80.505 h 93.3915 l -43.6125,80.505" /></clipPath></defs><g
     id="g7"><path
       id="rect7"
       style="fill:#17a0c4;fill-rule:evenodd;stroke-width:20;stroke-linecap:round;stroke-linejoin:round;paint-order:stroke fill markers"
       d="m 50,0 h 156 c 27.7,0 50,22.3 50,50 v 156 c 0,27.7 -22.3,50 -50,50 H 50 C 22.3,256 0,233.7 0,206 V 50 C 0,22.3 22.3,0 50,0 Z" /><path
       id="path44"
       style="fill:#ffffff;fill-opacity:1;fill-rule:nonzero;stroke:none;stroke-width:0.05"
       d="m 56.9985,170.75252 h 142.003 v -85.505 H 56.9985 Z"
       clip-path="url(#clipPath7)" /></g></svg>
