<?xml version="1.0" encoding="UTF-8" standalone="no"?>
<!-- Created with Inkscape (http://www.inkscape.org/) -->

<svg
   version="1.1"
   id="svg1"
   width="256"
   height="256"
   viewBox="0 0 256.00001 256.00002"
   sodipodi:docname="clear-outside-apy.svg"
   xml:space="preserve"
   inkscape:version="1.4.1 (93de688d07, 2025-03-30)"
   inkscape:export-filename="clear-outside-apy.png"
   inkscape:export-xdpi="96"
   inkscape:export-ydpi="96"
   xmlns:inkscape="http://www.inkscape.org/namespaces/inkscape"
   xmlns:sodipodi="http://sodipodi.sourceforge.net/DTD/sodipodi-0.dtd"
   xmlns:xlink="http://www.w3.org/1999/xlink"
   xmlns="http://www.w3.org/2000/svg"
   xmlns:svg="http://www.w3.org/2000/svg"><defs
     id="defs1"><rect
       x="3914.8948"
       y="1525.1779"
       width="6552.9736"
       height="796.65912"
       id="rect10" /><rect
       x="3902.6606"
       y="1517.0217"
       width="1623.05"
       height="432.26962"
       id="rect9" /><linearGradient
       id="linearGradient2795"><stop
         style="stop-color:#b8b8b8;stop-opacity:0.49803922;"
         offset="0"
         id="stop2797" /><stop
         style="stop-color:#7f7f7f;stop-opacity:0;"
         offset="1"
         id="stop2799" /></linearGradient><linearGradient
       id="linearGradient2787"><stop
         style="stop-color:#7f7f7f;stop-opacity:0.5;"
         offset="0"
         id="stop2789" /><stop
         style="stop-color:#7f7f7f;stop-opacity:0;"
         offset="1"
         id="stop2791" /></linearGradient><linearGradient
       id="linearGradient3676"><stop
         style="stop-color:#b2b2b2;stop-opacity:0.5;"
         offset="0"
         id="stop3678" /><stop
         style="stop-color:#b3b3b3;stop-opacity:0;"
         offset="1"
         id="stop3680" /></linearGradient><linearGradient
       id="linearGradient3236"><stop
         style="stop-color:#f4f4f4;stop-opacity:1"
         offset="0"
         id="stop3244" /><stop
         style="stop-color:white;stop-opacity:1"
         offset="1"
         id="stop3240" /></linearGradient><linearGradient
       id="linearGradient4671"><stop
         style="stop-color:#ffd43b;stop-opacity:1;"
         offset="0"
         id="stop4673" /><stop
         style="stop-color:#ffe873;stop-opacity:1"
         offset="1"
         id="stop4675" /></linearGradient><linearGradient
       id="linearGradient4689"><stop
         style="stop-color:#5a9fd4;stop-opacity:1;"
         offset="0"
         id="stop4691" /><stop
         style="stop-color:#306998;stop-opacity:1;"
         offset="1"
         id="stop4693" /></linearGradient><linearGradient
       x1="224.23996"
       y1="144.75717"
       x2="-65.308502"
       y2="144.75717"
       id="linearGradient2987"
       xlink:href="#linearGradient4671"
       gradientUnits="userSpaceOnUse"
       gradientTransform="translate(100.2702,99.61116)" /><linearGradient
       x1="172.94208"
       y1="77.475983"
       x2="26.670298"
       y2="76.313133"
       id="linearGradient2990"
       xlink:href="#linearGradient4689"
       gradientUnits="userSpaceOnUse"
       gradientTransform="translate(100.2702,99.61116)" /><linearGradient
       inkscape:collect="always"
       xlink:href="#linearGradient4671"
       id="linearGradient2255"
       gradientUnits="userSpaceOnUse"
       gradientTransform="matrix(0.562541,0,0,0.567972,-11.5974,-7.60954)"
       x1="224.23996"
       y1="144.75717"
       x2="-65.308502"
       y2="144.75717" /><linearGradient
       inkscape:collect="always"
       xlink:href="#linearGradient4689"
       id="linearGradient2258"
       gradientUnits="userSpaceOnUse"
       gradientTransform="matrix(0.562541,0,0,0.567972,-11.5974,-7.60954)"
       x1="172.94208"
       y1="76.176224"
       x2="26.670298"
       y2="76.313133" /><radialGradient
       inkscape:collect="always"
       xlink:href="#linearGradient2795"
       id="radialGradient2801"
       cx="61.518883"
       cy="132.28575"
       fx="61.518883"
       fy="132.28575"
       r="29.036913"
       gradientTransform="matrix(1,0,0,0.177966,0,108.7434)"
       gradientUnits="userSpaceOnUse" /></defs><sodipodi:namedview
     id="namedview1"
     pagecolor="#ffffff"
     bordercolor="#999999"
     borderopacity="1"
     inkscape:showpageshadow="2"
     inkscape:pageopacity="0"
     inkscape:pagecheckerboard="0"
     inkscape:deskcolor="#d1d1d1"
     inkscape:zoom="1.9272185"
     inkscape:cx="104.29539"
     inkscape:cy="156.70253"
     inkscape:window-width="1920"
     inkscape:window-height="1080"
     inkscape:window-x="0"
     inkscape:window-y="0"
     inkscape:window-maximized="1"
     inkscape:current-layer="g1" /><g
     inkscape:groupmode="layer"
     inkscape:label="Image"
     id="g1"><g
       id="g2"><rect
         style="fill:#444444;fill-opacity:1;fill-rule:evenodd;stroke-width:20;stroke-linecap:round;stroke-linejoin:round;paint-order:stroke fill markers"
         id="rect2"
         width="256"
         height="256"
         x="0"
         y="0"
         ry="50" /><g
         id="g34"
         transform="matrix(0.2179273,0,0,0.21775686,-584.62831,-34.742885)"><path
           sodipodi:type="star"
           style="fill:#ffffff;fill-opacity:1;stroke:#ffffff;stroke-width:37.009;stroke-linecap:round;stroke-linejoin:round;stroke-dasharray:none;stroke-opacity:1"
           id="path8"
           inkscape:flatsided="false"
           sodipodi:sides="5"
           sodipodi:cx="3489.2544"
           sodipodi:cy="563.6203"
           sodipodi:r1="114.22891"
           sodipodi:r2="59.08707"
           sodipodi:arg1="0.94677325"
           sodipodi:arg2="1.5162409"
           inkscape:rounded="0"
           inkscape:randomized="0"
           d="m 3555.9989,656.32098 -63.5226,-33.70152 -70.7603,33.12471 12.4225,-70.8279 -53.3696,-57.06097 71.2001,-10.07253 37.7761,-68.39033 31.5815,64.60274 76.7166,14.79342 -51.6816,49.99921 z"
           inkscape:transform-center-x="-8.4980683"
           inkscape:transform-center-y="6.7430402"
           transform="matrix(0.75074158,0.33817419,-0.33817419,0.75074158,1143.5992,-927.27129)" /><path
           sodipodi:type="star"
           style="fill:#ffffff;fill-opacity:1;stroke:#ffffff;stroke-width:37.009;stroke-linecap:round;stroke-linejoin:round;stroke-dasharray:none;stroke-opacity:1"
           id="path8-3"
           inkscape:flatsided="false"
           sodipodi:sides="5"
           sodipodi:cx="3489.2544"
           sodipodi:cy="563.6203"
           sodipodi:r1="114.22891"
           sodipodi:r2="59.08707"
           sodipodi:arg1="0.94677325"
           sodipodi:arg2="1.5162409"
           inkscape:rounded="0"
           inkscape:randomized="0"
           d="m 3555.9989,656.32098 -63.5226,-33.70152 -70.7603,33.12471 12.4225,-70.8279 -53.3696,-57.06097 71.2001,-10.07253 37.7761,-68.39033 31.5815,64.60274 76.7166,14.79342 -51.6816,49.99921 z"
           inkscape:transform-center-x="-1.8959595"
           inkscape:transform-center-y="3.7737621"
           transform="matrix(0.31061563,-0.22342701,0.22342701,0.31061563,1677.9108,1292.663)" /><path
           sodipodi:type="star"
           style="fill:#ffffff;fill-opacity:1;stroke:#ffffff;stroke-width:37.009;stroke-linecap:round;stroke-linejoin:round;stroke-dasharray:none;stroke-opacity:1"
           id="path8-1"
           inkscape:flatsided="false"
           sodipodi:sides="5"
           sodipodi:cx="3489.2544"
           sodipodi:cy="563.6203"
           sodipodi:r1="114.22891"
           sodipodi:r2="59.08707"
           sodipodi:arg1="0.94677325"
           sodipodi:arg2="1.5162409"
           inkscape:rounded="0"
           inkscape:randomized="0"
           d="m 3555.9989,656.32098 -63.5226,-33.70152 -70.7603,33.12471 12.4225,-70.8279 -53.3696,-57.06097 71.2001,-10.07253 37.7761,-68.39033 31.5815,64.60274 76.7166,14.79342 -51.6816,49.99921 z"
           inkscape:transform-center-x="5.9654991"
           inkscape:transform-center-y="4.0391369"
           transform="matrix(0.40103137,0.51815781,-0.51815781,0.40103137,1927.1118,-945.15489)" /><path
           style="fill:#fefefe"
           d="m 3391.3333,1091.1757 c -10.954,-0.8892 -35.3925,-4.4122 -44.6667,-6.4389 -40.6851,-8.8912 -46.7921,-10.692 -70.6667,-20.8378 -5.5,-2.3372 -13.9,-5.824 -18.6666,-7.7484 -19.8482,-8.0128 -50.1555,-26.4981 -74,-45.1345 -11.0028,-8.5995 -54.5667,-52.26871 -63.5293,-63.6828 -17.2062,-21.91251 -35.6878,-51.72832 -44.8326,-72.32698 -15.227,-34.29927 -24.6974,-64.85104 -31.1032,-100.33968 -3.4552,-19.14254 -4.9593,-73.55318 -2.7089,-98 2.6923,-29.24854 11.1183,-63.52206 22.7574,-92.56745 7.0974,-17.7115 27.8373,-60.17525 34.5194,-70.67656 12.554,-19.72917 31.2358,-42.03002 54.4556,-65.00475 33.3916,-33.03904 46.5051,-42.66863 90.6555,-66.57047 13.8199,-7.48174 52.0827,-22.36712 67.7861,-26.37084 15.0463,-3.8362 59.9887,-13.16474 68.6666,-14.2529 10.4475,-1.31005 25.9062,-1.53972 27.0441,-0.4018 1.3032,1.30316 -5.9191,9.69084 -11.0441,12.82613 -47.1819,28.86451 -105.6469,109.31418 -124.6361,171.50312 -5.3421,17.49529 -13.0422,50.3455 -15.6693,66.84886 -2.497,15.68603 -2.8572,23.31355 -2.8018,59.33333 0.067,43.79768 0.1621,44.75314 8.2773,83.33333 7.0656,33.59062 38.97,102.95644 61.0987,132.83932 17.6336,23.81269 60.0168,65.76873 82.1823,81.35397 14.6558,10.30488 45.1561,27.07709 67.5489,37.14534 22.1442,9.95642 43.0633,17.19403 64.6667,22.37343 28.4241,6.8147 33.0208,7.4772 61.838,8.9124 15.4408,0.769 26.5123,1.8931 27.6088,2.803 2.7577,2.2887 0.4378,5.4995 -9.809,13.5761 -11.236,8.8563 -15.221,11.3909 -21.3984,13.6101 -2.6983,0.9694 -8.8061,3.5485 -13.5727,5.7315 -34.621,15.855 -82.4645,29.5588 -124.6667,35.7083 -13.4801,1.9642 -53.061,3.4519 -65.3333,2.4556 z"
           id="path18" /></g></g></g></svg>
