<?xml version="1.0" encoding="UTF-8" standalone="no"?>
<!-- Created with Inkscape (http://www.inkscape.org/) -->

<svg
   version="1.1"
   id="svg1"
   width="256"
   height="256"
   viewBox="0 0 256 256"
   sodipodi:docname="f95zone.svg"
   inkscape:version="1.4.1 (93de688d07, 2025-03-30)"
   xmlns:inkscape="http://www.inkscape.org/namespaces/inkscape"
   xmlns:sodipodi="http://sodipodi.sourceforge.net/DTD/sodipodi-0.dtd"
   xmlns="http://www.w3.org/2000/svg"
   xmlns:svg="http://www.w3.org/2000/svg">
  <defs
     id="defs1" />
  <sodipodi:namedview
     id="namedview1"
     pagecolor="#ffffff"
     bordercolor="#999999"
     borderopacity="1"
     inkscape:showpageshadow="2"
     inkscape:pageopacity="0"
     inkscape:pagecheckerboard="0"
     inkscape:deskcolor="#d1d1d1"
     inkscape:zoom="2.2288715"
     inkscape:cx="75.823123"
     inkscape:cy="87.488219"
     inkscape:window-width="1920"
     inkscape:window-height="1080"
     inkscape:window-x="0"
     inkscape:window-y="0"
     inkscape:window-maximized="1"
     inkscape:current-layer="g1" />
  <g
     inkscape:groupmode="layer"
     inkscape:label="Image"
     id="g1">
    <g
       id="g28">
      <rect
         style="fill:#101010;fill-opacity:1;fill-rule:evenodd;stroke-width:20;stroke-linecap:round;stroke-linejoin:round;paint-order:stroke fill markers"
         id="rect27"
         width="256"
         height="256"
         x="0"
         y="0"
         ry="50" />
      <g
         id="g27"
         transform="matrix(0.72083578,0,0,0.72083578,35.733017,53.856767)">
        <path
           style="fill:#b94343;stroke-width:0.116616"
           d="m 51.747143,197.91462 v -7.79946 l -5.5101,-0.0739 c -3.03056,-0.0406 -9.47213,-0.11244 -14.31461,-0.15959 l -8.8045,-0.0857 -0.0352,-0.54456 c -0.0894,-1.38522 5.55445,-10.27783 24.25907,-38.22314 l 4.40531,-6.58168 v -7.20816 -7.20815 h 10.59432 c 10.10393,0 17.60569,0.1446 17.96612,0.3463 0.23077,0.12915 -0.2127,0.34623 -1.80289,0.88253 -9.19098,3.09972 -15.99499,10.82355 -17.25451,19.58712 -0.66794,4.64749 -1.01017,25.87152 -0.48985,30.37846 0.60866,5.27196 2.58395,10.57064 5.28488,14.17662 2.50806,3.34848 7.6965,6.85256 12.51333,8.45104 2.81437,0.93395 3.64023,1.43989 2.5533,1.56419 -1.40682,0.16088 -10.21449,0.29474 -19.48149,0.29609 l -9.88321,0.002 z m 48.803787,7.67312 c -2.437267,-0.0488 -4.823797,-0.12465 -5.303387,-0.16856 l -0.872,-0.0798 0.28856,-0.23365 c 0.50144,-0.40605 1.51703,-0.86157 3.32128,-1.48969 9.926017,-3.45559 16.275597,-11.59828 17.139607,-21.97982 0.63915,-7.67912 0.79515,-21.94673 0.29272,-26.76668 -1.22093,-11.71279 -7.4527,-20.01548 -17.723867,-23.61384 -1.77832,-0.623 -1.94369,-0.69703 -1.78137,-0.79735 0.43555,-0.26918 3.5649,-0.33583 18.486607,-0.39371 l 15.94722,-0.0619 v 37.85567 37.85566 l -12.68198,-0.0188 c -6.97509,-0.0104 -14.67612,-0.0587 -17.11339,-0.10753 z m 47.52431,-8.29917 c 0.007,-17.43772 0.22511,-28.31283 0.5909,-29.44288 0.30995,-0.95752 2.0228,1.41868 9.79063,13.58261 2.01709,3.15856 5.15282,8.03894 6.96831,10.84529 3.32943,5.14649 7.14298,11.19374 7.82381,12.40647 l 0.36882,0.65691 -0.41667,0.0782 c -0.97872,0.18361 -6.69448,0.29182 -15.59575,0.29526 l -9.53336,0.004 z m 39.99597,-29.41638 v -37.84188 h 8.51298 8.51295 v 37.84188 37.84188 h -8.51295 -8.51298 z m -187.6827267,23.81093 -0.27027,-0.27026 -0.087,-6.22277 c -0.10345,-7.40222 0.0714,-39.57782 0.21586,-39.73155 0.0121,-0.0129 4.29709,-0.053 9.52223,-0.0892 5.2251397,-0.0362 10.0775097,-0.0908 10.7830297,-0.12128 4.24936,-0.18363 9.67794,0.20676 10.16371,0.73093 0.46896,0.506 0.903,-0.26558 -5.55876,9.88177 -2.59002,4.06728 -4.23007,6.63482 -4.95359,7.75497 -0.26928,0.4169 -1.01471,1.5714 -1.65651,2.56555 -0.64178,0.99415 -3.08321,4.77251 -5.42537,8.39635 -2.34216,3.62384 -5.3685397,8.31618 -6.7252897,10.42743 -4.3442,6.76003 -5.09339,7.59277 -6.00808,6.67808 z m 86.0519197,-1.30859 c -6.68108,-1.25041 -8.73532,-4.6519 -9.15276,-15.15554 -0.47478,-11.94657 0.0226,-21.13131 1.31841,-24.34481 3.0957,-7.67722 14.69976,-8.43159 18.26604,-1.18746 3.08643,6.26944 3.02795,29.93302 -0.0891,36.02771 -1.75288,3.4274 -6.2067,5.43418 -10.34264,4.6601 z m 141.163617,-0.41404 c -3.20293,-0.0858 -4.82702,-0.22195 -5.02641,-0.42133 -0.23372,-0.2337 -0.21011,-13.96828 0.0244,-14.19505 0.0774,-0.0749 7.96874,-0.17131 20.97842,-0.25627 l 12.41958,-0.0811 v 7.54037 7.54038 l -12.53619,-0.019 c -6.89494,-0.0105 -14.03182,-0.059 -15.85979,-0.10803 z m -57.73551,-21.75731 c -0.45199,-0.28062 -2.73933,-3.81947 -11.82156,-18.28985 -7.02766,-11.1969 -7.74413,-12.32641 -9.80148,-15.45162 -2.07994,-3.15952 -2.55963,-3.95006 -2.45826,-4.0514 0.20147,-0.20147 2.97314,-0.26925 13.75372,-0.33637 L 171.41809,130 l -0.0758,12.23068 c -0.15603,25.18641 -0.24396,26.73597 -1.47377,25.9725 z m 57.21114,-8.56825 c -3.74808,-0.0829 -4.33234,-0.11996 -4.45085,-0.28204 -0.55553,-0.75972 -0.34702,-12.72316 0.23557,-13.51743 0.37522,-0.51154 4.43265,-0.63996 20.30789,-0.64279 l 12.82774,-0.002 -0.0217,7.08442 c -0.0119,3.89643 -0.025,7.17625 -0.0292,7.2885 -0.008,0.22825 -19.59329,0.27683 -28.86943,0.0716 z"
           id="path20" />
        <path
           style="fill:#ffffff;fill-opacity:1;stroke-width:0.183272"
           d="M 0,59.639815 V 0.16796585 H 41.257353 82.514705 L 82.404038,3.4210485 C 82.343173,5.210244 82.241529,11.177583 82.178169,16.681801 l -0.115202,10.00767 -5.705755,0.116675 c -3.138164,0.06417 -14.633405,0.170883 -25.544977,0.237134 l -19.839222,0.120458 v 9.383146 9.38314 l 2.061813,0.118816 c 1.133997,0.06534 4.659697,0.119237 7.834889,0.119768 3.175192,0 12.02037,0.0557 19.655949,0.122609 l 13.882874,0.121655 V 60.379593 74.3463 l -10.492335,0.114673 c -5.770786,0.06308 -15.543779,0.166815 -21.717764,0.230516 L 30.973013,74.807336 V 96.959491 119.11167 H 15.486506 0 Z m 106.57282,59.348065 c -0.504,-0.0318 -1.25921,-0.10327 -1.67825,-0.15891 l -0.76189,-0.10121 0.41698,-1.04512 c 1.15707,-2.9002 4.14964,-9.19906 9.81326,-20.655283 9.3832,-18.980058 10.81203,-21.948777 10.81203,-22.464304 0,-0.52018 -0.67306,-0.604945 -3.36428,-0.423688 -8.8334,0.59492 -15.03218,-1.795061 -22.165606,-8.546131 C 91.752769,58.123992 87.248661,45.65682 88.489375,34.714788 88.69279,32.920846 89.157276,29.369856 89.436307,27.475533 90.764486,18.458488 99.846404,6.6036244 108.22227,2.9537042 c 7.58864,-3.30687489 30.20964,-4.0143902 38.85372,-1.215227 10.44964,3.3838475 21.00968,16.3663398 21.79608,26.7960658 0.0698,0.925922 0.27248,1.890138 0.52004,2.474175 0.5566,1.313091 0.63809,12.269381 0.0986,13.254242 -0.17107,0.312305 -0.40514,1.137023 -0.52013,1.832724 -0.97796,5.916357 -2.69939,10.302395 -10.67466,27.197916 -1.26089,2.671193 -2.88874,6.093802 -3.61745,7.605798 -0.7287,1.511995 -1.84052,3.821227 -2.4707,5.131623 -0.63019,1.3104 -1.64182,3.413446 -2.24807,4.673445 -0.60626,1.259995 -2.38968,4.921118 -3.96316,8.135824 -1.57349,3.21471 -2.86089,5.86402 -2.86089,5.88736 0,0.0234 -1.38669,2.87756 -3.08154,6.34269 -1.69486,3.46513 -3.24122,6.63777 -3.43636,7.0503 l -0.3548,0.75008 -5.58981,0.12015 c -5.41141,0.11633 -22.23931,0.11424 -24.1003,-0.003 z M 130.5024,50.27464 c 7.10268,-2.092034 10.62694,-8.47376 8.89644,-16.109669 -2.78118,-12.272061 -18.75955,-11.655608 -20.46023,0.789365 -0.90494,6.622017 0.70472,10.506163 5.73983,13.85037 2.57937,1.713156 3.882,2.041928 5.82396,1.469934 z m 78.04192,68.64831 c -9.39089,-0.65102 -15.96003,-3.60174 -22.08175,-9.91864 -4.53912,-4.68385 -8.18151,-11.770879 -8.79298,-17.108576 -0.0693,-0.604799 -0.29476,-1.635705 -0.50104,-2.290901 -0.38313,-1.216838 -0.51389,-6.127894 -0.21104,-7.926525 l 0.11571,-0.687271 11.57586,0.0028 c 15.87093,0.0042 17.00668,0.117073 17.22573,1.715083 0.34248,2.498678 2.53781,7.177749 3.85135,8.208706 6.03229,4.734531 12.85513,2.818709 15.1187,-4.245242 1.3481,-4.206999 1.50454,-13.245306 0.2939,-16.978933 -1.86654,-5.756306 -3.54035,-7.097383 -8.87749,-7.112704 -5.56787,-0.01596 -7.44086,1.210843 -10.16375,6.657274 l -0.85868,1.717592 -11.30402,-0.09771 c -13.7927,-0.119198 -14.68914,-0.215105 -15.06522,-1.611693 -0.45106,-1.675184 -0.56695,-8.236073 -0.66898,-37.876239 L 178.09321,0.16796585 h 37.80054 37.80053 L 253.57056,12.218118 c -0.068,6.627582 -0.16434,12.2635 -0.21399,12.52426 l -0.0903,0.474109 -9.91886,0.121525 c -5.45537,0.06684 -13.85058,0.121526 -18.656,0.121526 -4.80542,0 -10.95668,0.05399 -13.66944,0.119969 l -4.93231,0.119968 v 7.02765 7.02765 h 0.41825 c 0.23004,0 0.72487,-0.133061 1.09963,-0.29569 2.17572,-0.944163 3.10654,-1.221068 5.17156,-1.538477 16.2191,-2.492983 26.49474,0.894565 35.02797,11.547596 3.5352,4.413419 6.76279,12.035563 7.2174,17.044323 0.0686,0.755998 0.28374,2.405448 0.47805,3.665443 0.69572,4.511287 0.66451,8.781949 -0.11121,15.211599 -0.13986,1.159198 -0.3057,2.932357 -0.36854,3.940356 -0.44919,7.203843 -6.05006,16.737305 -13.5533,23.069545 -4.31639,3.64275 -8.36574,5.34398 -14.94495,6.27872 -2.30533,0.32753 -14.40944,0.49231 -17.9802,0.24476 z"
           id="path17" />
      </g>
    </g>
  </g>
</svg>
