<?xml version="1.0" encoding="UTF-8" standalone="no"?>
<svg
   id="layer_1"
   data-name="layer 1"
   width="256"
   height="256"
   viewBox="0 0 559.90336 531.77387"
   version="1.1"
   sodipodi:docname="g2a.svg"
   inkscape:version="1.4.1 (93de688d07, 2025-03-30)"
   inkscape:export-filename="g2a.png"
   inkscape:export-xdpi="96"
   inkscape:export-ydpi="96"
   xmlns:inkscape="http://www.inkscape.org/namespaces/inkscape"
   xmlns:sodipodi="http://sodipodi.sourceforge.net/DTD/sodipodi-0.dtd"
   xmlns="http://www.w3.org/2000/svg"
   xmlns:svg="http://www.w3.org/2000/svg"
   xmlns:rdf="http://www.w3.org/1999/02/22-rdf-syntax-ns#"
   xmlns:cc="http://creativecommons.org/ns#"
   xmlns:dc="http://purl.org/dc/elements/1.1/">
  <sodipodi:namedview
     id="namedview5"
     pagecolor="#ffffff"
     bordercolor="#999999"
     borderopacity="1"
     inkscape:showpageshadow="2"
     inkscape:pageopacity="0"
     inkscape:pagecheckerboard="0"
     inkscape:deskcolor="#d1d1d1"
     inkscape:zoom="1.8077543"
     inkscape:cx="58.636287"
     inkscape:cy="95.145672"
     inkscape:window-width="1920"
     inkscape:window-height="1080"
     inkscape:window-x="0"
     inkscape:window-y="0"
     inkscape:window-maximized="1"
     inkscape:current-layer="layer_1" />
  <defs
     id="defs1">
    <style
       id="style1">.cls-1{fill:#555e63;}.cls-2{fill:#f05f00;}.cls-3{fill:#0084c1;}</style>
  </defs>
  <title
     id="title1">g2a_rgb_white_full</title>
  <rect
     style="fill:#f6f6f6;fill-opacity:1;fill-rule:evenodd;stroke-width:22.523;stroke-linecap:round;stroke-linejoin:round;paint-order:stroke fill markers"
     id="rect5"
     width="559.90338"
     height="559.90338"
     x="0"
     y="-14.064745"
     ry="109.35612" />
  <g
     id="g5"
     transform="matrix(0.775286,0,0,0.775286,62.905606,59.748514)">
    <path
       class="cls-2"
       d="m 140.26417,200.59653 a 77.977048,77.977048 0 0 1 0,-155.954092 l 158.28954,-0.122499 v -58.584684 l -162.015,0.114687 a 136.56945,136.56945 0 0 0 0,273.138908 l 162.015,0.13672 V 93.334868 l -175.75738,0.0047 v 58.586902 l 114.45665,-0.001 v 48.81817 z"
       id="path2"
       style="stroke-width:11.0319" />
    <path
       class="cls-1"
       d="m 211.60602,236.61118 a 78.103013,78.103013 0 0 0 -78.09893,78.10224 v 87.86873 h 219.1661 L 383.75967,344.003 H 194.80199 v -23.48418 a 25.346249,25.346249 0 0 1 25.34394,-25.34612 l 123.26485,-0.01 a 82.985495,82.985495 0 1 0 0,-165.97099 l -146.68947,0.022 a 58.578391,58.578391 0 0 0 -58.57915,58.57856 l 200.99758,-0.007 a 24.764383,24.764383 0 0 1 24.94793,23.76324 24.385924,24.385924 0 0 1 -24.35227,25.05272 z"
       id="path1"
       style="stroke-width:11.0306" />
    <path
       class="cls-3"
       d="m 433.62216,305.35368 a 67.196823,67.196823 0 0 0 -18.69306,-22.62051 52.089495,52.089495 0 0 0 -31.7104,-10.28099 49.606119,49.606119 0 0 0 -30.86044,10.28099 67.196823,67.196823 0 0 0 -18.69304,22.62051 C 282.75945,402.32854 206.53295,545.83861 206.53295,545.83861 h 69.56163 L 383.2187,340.6066 l 50.34313,96.45169 h -77.5108 l 27.32668,52.18022 h 77.42098 l 29.54423,56.6001 h 69.56044 c 0,0 -75.37651,-143.51008 -126.2812,-240.48493 z"
       id="path5"
       style="stroke-width:10.9675" />
  </g>
  <metadata
     id="metadata5">
    <rdf:RDF>
      <cc:Work
         rdf:about="">
        <dc:title>g2a_rgb_white_full</dc:title>
      </cc:Work>
    </rdf:RDF>
  </metadata>
</svg>
