<?xml version="1.0" encoding="UTF-8" standalone="no"?>
<svg
   width="256"
   height="256"
   version="1.1"
   id="svg1"
   sodipodi:docname="github.svg"
   inkscape:version="1.4.1 (93de688d07, 2025-03-30)"
   xmlns:inkscape="http://www.inkscape.org/namespaces/inkscape"
   xmlns:sodipodi="http://sodipodi.sourceforge.net/DTD/sodipodi-0.dtd"
   xmlns="http://www.w3.org/2000/svg"
   xmlns:svg="http://www.w3.org/2000/svg">
  <defs
     id="defs1" />
  <sodipodi:namedview
     id="namedview1"
     pagecolor="#ffffff"
     bordercolor="#999999"
     borderopacity="1"
     inkscape:showpageshadow="2"
     inkscape:pageopacity="0"
     inkscape:pagecheckerboard="0"
     inkscape:deskcolor="#d1d1d1"
     inkscape:zoom="1.6585217"
     inkscape:cx="129.63351"
     inkscape:cy="167.61915"
     inkscape:window-width="1920"
     inkscape:window-height="1080"
     inkscape:window-x="0"
     inkscape:window-y="0"
     inkscape:window-maximized="1"
     inkscape:current-layer="svg1" />
  <g
     id="g1">
    <path
       id="rect1"
       style="fill:#24292f;fill-rule:evenodd;stroke-width:20;stroke-linecap:round;stroke-linejoin:round;paint-order:stroke fill markers"
       d="m 50,0 h 156 c 27.7,0 50,22.3 50,50 v 156 c 0,27.7 -22.3,50 -50,50 H 50 C 22.3,256 0,233.7 0,206 V 50 C 0,22.3 22.3,0 50,0 Z" />
    <path
       fill-rule="evenodd"
       clip-rule="evenodd"
       d="m 128.07996,32.969966 c -53.483863,0 -96.720366,43.555252 -96.720366,97.439034 0,43.07218 27.703119,79.53189 66.134686,92.43612 4.80494,0.97009 6.56496,-2.09659 6.56496,-4.67625 0,-2.25893 -0.15838,-10.00187 -0.15838,-18.06949 -26.905265,5.80869 -32.508052,-11.61539 -32.508052,-11.61539 -4.323848,-11.29269 -10.73043,-14.19505 -10.73043,-14.19505 -8.806079,-5.96905 0.64145,-5.96905 0.64145,-5.96905 9.768255,0.64541 14.893914,10.00187 14.893914,10.00187 8.645717,14.84046 22.577458,10.64727 28.182228,8.06564 0.79983,-6.29176 3.36365,-10.64728 6.08585,-13.06658 -21.458875,-2.25893 -44.036331,-10.64728 -44.036331,-48.0751 0,-10.64727 3.840782,-19.35832 9.926636,-26.133146 -0.960195,-2.419296 -4.323847,-12.423145 0.962175,-25.812425 0,0 8.166609,-2.58164 26.58058,10.00187 a 92.990458,92.990458 0 0 1 24.18108,-3.227048 c 8.16661,0 16.49161,1.130456 24.17911,3.227048 18.41595,-12.58351 26.58256,-10.00187 26.58256,-10.00187 5.28602,13.38928 1.92039,23.393129 0.96019,25.812425 6.24622,6.774826 9.92862,15.485876 9.92862,26.133146 0,37.42782 -22.57746,45.65383 -44.1967,48.0751 3.52402,3.06471 6.56496,8.87141 6.56496,18.06751 0,13.06658 -0.15838,23.55349 -0.15838,26.77856 0,2.58164 1.76201,5.64832 6.56497,4.68021 38.43156,-12.90819 66.13468,-49.36592 66.13468,-92.4381 0.15839,-53.883782 -43.2365,-97.439034 -96.56001,-97.439034 z"
       fill="#ffffff"
       id="path1"
       style="stroke-width:1.97978" />
  </g>
</svg>
