<?xml version="1.0" encoding="UTF-8" standalone="no"?>
<!-- Generator: Adobe Illustrator 25.4.1, SVG Export Plug-In . SVG Version: 6.00 Build 0)  -->

<svg
   version="1.2"
   x="0px"
   y="0px"
   viewBox="0 0 256.00001 256.00001"
   overflow="visible"
   xml:space="preserve"
   id="svg3"
   sodipodi:docname="pornhub.svg"
   width="256"
   height="256"
   inkscape:version="1.4.1 (93de688d07, 2025-03-30)"
   xmlns:inkscape="http://www.inkscape.org/namespaces/inkscape"
   xmlns:sodipodi="http://sodipodi.sourceforge.net/DTD/sodipodi-0.dtd"
   xmlns="http://www.w3.org/2000/svg"
   xmlns:svg="http://www.w3.org/2000/svg"><defs
   id="defs3">
	
</defs><sodipodi:namedview
   id="namedview3"
   pagecolor="#ffffff"
   bordercolor="#999999"
   borderopacity="1"
   inkscape:showpageshadow="2"
   inkscape:pageopacity="0"
   inkscape:pagecheckerboard="0"
   inkscape:deskcolor="#d1d1d1"
   inkscape:zoom="2.2604243"
   inkscape:cx="143.33592"
   inkscape:cy="95.557279"
   inkscape:window-width="1920"
   inkscape:window-height="1080"
   inkscape:window-x="0"
   inkscape:window-y="0"
   inkscape:window-maximized="1"
   inkscape:current-layer="svg3" />

<g
   id="g3"><rect
     style="fill:#000000;fill-rule:evenodd;stroke-width:20;stroke-linecap:round;stroke-linejoin:round;paint-order:stroke fill markers"
     id="rect3"
     width="256"
     height="256"
     x="0"
     y="0"
     ry="50" /><g
     id="Layer_1"
     transform="scale(1.872714)">
	<path
   fill="#f7971d"
   d="M 104.3,61 H 32.2 c -2.2,0.3 -3.5,1.6 -3.7,4.1 v 41.4 c 0.2,2.5 1.4,3.9 3.7,4.1 h 72.2 c 2.2,-0.3 3.5,-1.6 3.7,-4.1 V 65.1 c -0.4,-2.5 -1.6,-3.8 -3.8,-4.1"
   id="path1" />
	<path
   d="m 100.7,80.3 c -1.2,-1.4 -2.9,-2.2 -4.7,-2.6 -0.5,-0.1 -1.1,-0.2 -1.8,-0.3 -2.4,-0.2 -5.4,0.7 -6.8,1.9 l 0.3,-9.7 h -5.8 v 30 h 5.4 V 98 c 1.2,1 3.2,2.1 6.2,2.1 0.1,0 0.2,0 0.3,0 0.1,0 0.2,0 0.2,0 2.5,0 4.7,-1 6.4,-3 1.8,-2 2.7,-4.9 2.7,-8.6 0.2,-3.5 -0.7,-6.3 -2.4,-8.2 M 96,94 c -0.9,1.1 -2,1.6 -3.2,1.6 -1.7,0 -3,-0.8 -4,-2.3 -0.7,-1.1 -1.1,-2.7 -1.1,-5 0,-2.2 0.5,-3.8 1.4,-4.9 0.9,-1.1 2.1,-1.6 3.4,-1.6 1.4,0 2.6,0.5 3.5,1.6 0.9,1.1 1.4,2.9 1.4,5.4 0,2.4 -0.5,4.1 -1.4,5.2 M 72.7,87.1 c 0,3.1 -0.1,5.1 -0.4,5.9 -0.3,0.8 -0.8,1.5 -1.6,2 -0.8,0.5 -1.7,0.8 -2.6,0.8 -0.9,0 -1.6,-0.2 -2.1,-0.6 C 65.5,94.8 65.1,94.3 64.8,93.6 64.6,92.9 64.5,91 64.5,88 V 78 h -5.8 v 13.8 c 0,2 0.3,3.7 0.8,4.8 0.5,1.2 1.4,2.1 2.5,2.7 1.2,0.6 2.5,1 3.9,1 0.2,0 0.4,0 0.7,0 v 0 c 3.7,-0.1 5.6,-1.8 6.5,-2.9 v 2.4 h 5.3 V 77.9 H 72.6 Z M 53.9,80 c -0.5,-0.8 -1.3,-1.4 -2.4,-1.9 -1,-0.4 -2,-0.7 -3.2,-0.7 0,0 0,0 -0.1,0 -2.4,-0.1 -5.5,0.6 -7,2 v -9.8 h -5.8 v 30 h 5.8 V 88.8 c 0,-1.8 0.2,-3.2 0.5,-4.2 0.3,-0.9 0.9,-1.6 1.7,-2.1 0.8,-0.5 1.6,-0.7 2.6,-0.7 0.8,0 1.5,0.2 2.1,0.5 0.6,0.4 0.9,0.9 1.2,1.5 0.2,0.6 0.3,2.1 0.3,4.3 v 11.5 h 5.8 V 86.9 c 0,-2 -0.1,-3.4 -0.3,-4.3 -0.3,-0.9 -0.6,-1.8 -1.2,-2.6"
   id="path2" />
	<path
   fill="#ffffff"
   d="m 107.7,37.7 c -0.2,-0.8 -0.5,-1.6 -1,-2.2 -0.5,-0.6 -1.2,-1.2 -2.2,-1.6 -1,-0.4 -2,-0.6 -3.2,-0.6 -2.1,-0.1 -5.6,0.7 -6.5,2.4 v -1.9 h -4.9 v 19.9 h 5.3 v -9.1 c 0,-2.3 0.2,-3.7 0.4,-4.6 0.3,-0.8 0.8,-1.5 1.5,-2 0.7,-0.5 1.6,-0.8 2.4,-0.8 0.7,0 1.3,0.2 1.8,0.5 0.5,0.3 0.9,0.9 1.1,1.5 0.3,0.6 0.3,2 0.3,4.2 V 53.6 H 108 V 41.2 c 0,-1.5 -0.1,-2.7 -0.3,-3.5 M 82.5,33.3 c -1.6,0.2 -3,1.5 -3.7,2.3 v -1.9 h -4.9 v 19.9 h 5.3 v -6.2 c 0,-3.4 0.2,-5.7 0.4,-6.7 0.3,-1 0.7,-1.8 1.2,-2.2 0.5,-0.4 1.1,-0.6 1.9,-0.6 0.8,0 1.6,0.3 2.4,0.9 l 1.7,-4.6 c -1.1,-0.7 -2.3,-1 -3.5,-1 -0.2,0.1 -0.5,0.1 -0.8,0.1 m -21.5,0 c -1.9,0 -3.7,0.4 -5.3,1.3 -1.6,0.9 -2.8,2.1 -3.7,3.7 -0.9,1.7 -1.3,3.3 -1.3,5.1 0,2.3 0.4,4.3 1.3,5.8 0.9,1.6 2.1,2.8 3.7,3.7 1.7,0.8 3.4,1.2 5.2,1.2 3,0 5.4,-1 7.3,-3 1.9,-2 3,-4.4 3,-7.5 0,-3 -1,-5.5 -2.9,-7.4 -1.8,-1.9 -4.2,-2.9 -7.3,-2.9 m 3.5,14.9 c -1,1 -2.1,1.6 -3.5,1.6 -1.4,0 -2.5,-0.5 -3.5,-1.6 -1,-1 -1.4,-2.5 -1.4,-4.5 0,-2 0.4,-3.5 1.4,-4.5 1,-1 2.1,-1.6 3.5,-1.6 1.4,0 2.5,0.5 3.5,1.6 1,1 1.4,2.5 1.4,4.5 0,2 -0.4,3.4 -1.4,4.5 M 44,26.5 c -1,-0.3 -3.2,-0.4 -6.6,-0.4 h -8.9 v 27.5 h 5.6 V 43.2 h 3.7 c 2.5,0 4.4,-0.2 5.7,-0.4 1,-0.2 1.9,-0.6 2.9,-1.3 1,-0.7 1.7,-1.6 2.4,-2.7 0.6,-1.1 1,-2.6 1,-4.3 0,-2.2 -0.5,-4 -1.6,-5.4 C 47,27.8 45.6,26.9 44,26.5 m -0.7,10.3 c -0.4,0.6 -1,1 -1.7,1.4 -0.7,0.4 -2.2,0.4 -4.4,0.4 h -3 v -7.8 h 2.7 c 2,0 3.3,0.1 4,0.2 0.9,0.2 1.7,0.6 2.3,1.2 0.6,0.6 0.9,1.5 0.9,2.4 -0.2,0.9 -0.4,1.6 -0.8,2.2"
   id="path3" />
</g></g>
</svg>
