<?xml version="1.0" encoding="UTF-8" standalone="no"?>
<!-- Uploaded to: SVG Repo, www.svgrepo.com, Generator: SVG Repo Mixer Tools -->

<svg
   width="256"
   height="256"
   viewBox="0 0 81.92 81.92"
   version="1.1"
   preserveAspectRatio="xMidYMid"
   id="svg1"
   sodipodi:docname="reddit-icon-svgrepo-com.svg"
   inkscape:version="1.4.1 (93de688d07, 2025-03-30)"
   inkscape:export-filename="reddit-icon-svgrepo-com.png"
   inkscape:export-xdpi="96"
   inkscape:export-ydpi="96"
   xmlns:inkscape="http://www.inkscape.org/namespaces/inkscape"
   xmlns:sodipodi="http://sodipodi.sourceforge.net/DTD/sodipodi-0.dtd"
   xmlns="http://www.w3.org/2000/svg"
   xmlns:svg="http://www.w3.org/2000/svg">
  <defs
     id="defs1" />
  <sodipodi:namedview
     id="namedview1"
     pagecolor="#ffffff"
     bordercolor="#999999"
     borderopacity="1"
     inkscape:showpageshadow="2"
     inkscape:pageopacity="0"
     inkscape:pagecheckerboard="0"
     inkscape:deskcolor="#d1d1d1"
     inkscape:zoom="1.8595194"
     inkscape:cx="46.786283"
     inkscape:cy="146.81213"
     inkscape:window-width="1920"
     inkscape:window-height="1080"
     inkscape:window-x="0"
     inkscape:window-y="0"
     inkscape:window-maximized="1"
     inkscape:current-layer="svg1" />
  <rect
     style="fill:#ff4500;fill-opacity:1;fill-rule:evenodd;stroke-width:6.4;stroke-linecap:round;stroke-linejoin:round;paint-order:stroke fill markers"
     id="rect1"
     width="81.919998"
     height="81.919998"
     x="0"
     y="0"
     ry="16" />
  <path
     d="m 68.207958,41.350486 c 0,-3.320492 -2.685155,-5.957404 -5.957404,-5.957404 -1.611095,0 -3.076551,0.634425 -4.150615,1.660243 -4.101462,-2.930003 -9.717533,-4.834189 -15.968029,-5.078129 l 2.734308,-12.794083 8.887411,1.904185 c 0.0983,2.246428 1.953337,4.053219 4.248918,4.053219 2.343821,0 4.248007,-1.904185 4.248007,-4.248917 0,-2.343822 -1.904186,-4.248007 -4.248007,-4.248007 -1.660246,0 -3.125705,0.976668 -3.80928,2.392974 l -9.91232,-2.099883 c -0.293094,-0.04915 -0.586185,0 -0.781881,0.146546 -0.24394,0.146546 -0.390487,0.390486 -0.438727,0.683577 l -3.02831,14.25863 c -6.347891,0.195699 -12.061355,2.099885 -16.211969,5.07904 -1.074062,-1.025818 -2.53952,-1.660243 -4.150613,-1.660243 -3.320491,0 -5.957404,2.685155 -5.957404,5.957404 0,2.441216 1.464547,4.491946 3.516188,5.420372 -0.0983,0.585273 -0.146546,1.171456 -0.146546,1.806793 0,9.179591 10.694201,16.651603 23.878769,16.651603 13.18457,0 23.878772,-7.42286 23.878772,-16.651603 0,-0.586185 -0.04915,-1.22152 -0.146548,-1.806793 2.050733,-0.928426 3.51528,-3.028308 3.51528,-5.469524 z m -40.920861,4.248007 c 0,-2.343824 1.904185,-4.248007 4.248917,-4.248007 2.343823,0 4.248008,1.904183 4.248008,4.248007 0,2.343821 -1.904185,4.248918 -4.248008,4.248918 -2.344732,0.04824 -4.248917,-1.905097 -4.248917,-4.248918 z m 23.781377,11.280384 c -2.930007,2.930006 -8.496925,3.125702 -10.10802,3.125702 -1.660243,0 -7.227164,-0.244848 -10.108927,-3.125702 -0.438727,-0.439639 -0.438727,-1.123216 0,-1.562851 0.439637,-0.438727 1.123214,-0.438727 1.562851,0 1.855945,1.855942 5.762617,2.490368 8.546076,2.490368 2.78346,0 6.738375,-0.634426 8.545168,-2.490368 0.439636,-0.438727 1.123213,-0.438727 1.562852,0 0.390483,0.439635 0.390483,1.123212 0,1.562851 z m -0.781882,-6.983226 c -2.343821,0 -4.248006,-1.904185 -4.248006,-4.248006 0,-2.343824 1.904185,-4.248007 4.248006,-4.248007 2.344733,0 4.248918,1.904183 4.248918,4.248007 0,2.294669 -1.904185,4.248006 -4.248918,4.248006 z"
     fill="#ffffff"
     fill-rule="nonzero"
     id="path1"
     style="stroke-width:0.32" />
</svg>
